<svg xmlns="http://www.w3.org/2000/svg" xmlns:xlink="http://www.w3.org/1999/xlink" width="500" zoomAndPan="magnify" viewBox="0 0 375 374.999991" height="500" preserveAspectRatio="xMidYMid meet" version="1.0"><defs><clipPath id="acd6a42a91"><path d="M 109.367188 0 L 265.832031 0 L 265.832031 375 L 109.367188 375 Z M 109.367188 0 " clip-rule="nonzero"/></clipPath></defs><path fill="#5ac47f" d="M 213.121094 250.285156 L 206.617188 246.722656 L 200.121094 243.167969 L 200.121094 166.898438 L 175.085938 166.898438 L 175.085938 243.167969 L 168.582031 246.722656 L 162.085938 250.285156 C 145.011719 259.632812 134.402344 277.503906 134.402344 296.921875 C 134.402344 326.21875 158.265625 350.054688 187.601562 350.054688 C 216.933594 350.054688 240.796875 326.21875 240.796875 296.921875 C 240.796875 277.503906 230.1875 259.632812 213.121094 250.285156 " fill-opacity="1" fill-rule="nonzero"/><g clip-path="url(#acd6a42a91)"><path fill="#5ac47f" d="M 187.601562 362.554688 C 151.367188 362.554688 121.886719 333.113281 121.886719 296.921875 C 121.886719 272.933594 134.980469 250.863281 156.066406 239.324219 L 162.566406 235.761719 L 162.566406 37.5 C 162.566406 23.691406 173.777344 12.496094 187.601562 12.496094 C 201.425781 12.496094 212.632812 23.691406 212.632812 37.5 L 212.632812 235.761719 L 219.132812 239.324219 C 240.21875 250.863281 253.3125 272.933594 253.3125 296.921875 C 253.3125 333.113281 223.835938 362.554688 187.601562 362.554688 Z M 225.148438 228.363281 L 225.148438 200.027344 L 262.703125 200.027344 L 262.703125 187.523438 L 225.148438 187.523438 L 225.148438 175.023438 L 250.183594 175.023438 L 250.183594 162.519531 L 225.148438 162.519531 L 225.148438 150.023438 L 250.183594 150.023438 L 250.183594 137.519531 L 225.148438 137.519531 L 225.148438 125.019531 L 262.703125 125.019531 L 262.703125 112.515625 L 225.148438 112.515625 L 225.148438 100.011719 L 250.183594 100.011719 L 250.183594 87.511719 L 225.148438 87.511719 L 225.148438 75.007812 L 250.183594 75.007812 L 250.183594 62.507812 L 225.148438 62.507812 L 225.148438 50.003906 L 262.703125 50.003906 L 262.703125 37.5 L 225.148438 37.5 C 225.148438 16.789062 208.339844 -0.00390625 187.601562 -0.00390625 C 166.859375 -0.00390625 150.050781 16.789062 150.050781 37.5 L 150.050781 228.363281 C 125.519531 241.792969 108.984375 267.964844 109.375 297.964844 C 109.925781 340.0625 144.273438 374.433594 186.421875 375.050781 C 230.171875 375.691406 265.832031 340.464844 265.832031 296.921875 C 265.832031 267.359375 249.394531 241.632812 225.148438 228.363281 " fill-opacity="1" fill-rule="nonzero"/></g></svg>