<svg xmlns="http://www.w3.org/2000/svg" xmlns:xlink="http://www.w3.org/1999/xlink" width="500" zoomAndPan="magnify" viewBox="0 0 375 374.999991" height="500" preserveAspectRatio="xMidYMid meet" version="1.0"><defs><clipPath id="3ede27e0a9"><path d="M 5.480469 5.917969 L 240 5.917969 L 240 369.667969 L 5.480469 369.667969 Z M 5.480469 5.917969 " clip-rule="nonzero"/></clipPath><clipPath id="b7b85adb64"><path d="M 135.390625 369.667969 C 133.265625 369.664062 131.144531 369.609375 129.019531 369.503906 C 126.898438 369.398438 124.777344 369.238281 122.664062 369.027344 C 120.546875 368.816406 118.441406 368.554688 116.335938 368.242188 C 114.234375 367.929688 112.140625 367.5625 110.058594 367.144531 C 107.972656 366.730469 105.902344 366.261719 103.839844 365.746094 C 101.777344 365.226562 99.730469 364.660156 97.695312 364.039062 C 95.664062 363.421875 93.648438 362.753906 91.644531 362.035156 C 89.644531 361.320312 87.664062 360.554688 85.699219 359.738281 C 83.738281 358.925781 81.792969 358.0625 79.875 357.152344 C 77.953125 356.242188 76.054688 355.285156 74.179688 354.285156 C 72.308594 353.28125 70.457031 352.234375 68.636719 351.140625 C 66.8125 350.046875 65.019531 348.910156 63.25 347.726562 C 61.484375 346.546875 59.746094 345.324219 58.042969 344.054688 C 56.335938 342.789062 54.660156 341.484375 53.015625 340.132812 C 51.375 338.785156 49.765625 337.398438 48.191406 335.96875 C 46.617188 334.542969 45.078125 333.078125 43.574219 331.574219 C 42.070312 330.070312 40.605469 328.53125 39.179688 326.957031 C 37.75 325.382812 36.363281 323.773438 35.015625 322.132812 C 33.664062 320.488281 32.359375 318.8125 31.089844 317.105469 C 29.824219 315.398438 28.601562 313.664062 27.417969 311.894531 C 26.238281 310.128906 25.101562 308.335938 24.007812 306.511719 C 22.914062 304.6875 21.867188 302.839844 20.863281 300.964844 C 19.859375 299.09375 18.90625 297.195312 17.996094 295.273438 C 17.085938 293.351562 16.222656 291.410156 15.410156 289.449219 C 14.59375 287.484375 13.828125 285.503906 13.109375 283.503906 C 12.394531 281.5 11.726562 279.484375 11.109375 277.449219 C 10.488281 275.417969 9.921875 273.371094 9.402344 271.308594 C 8.886719 269.246094 8.417969 267.175781 8 265.089844 C 7.585938 263.003906 7.21875 260.914062 6.90625 258.808594 C 6.59375 256.707031 6.332031 254.601562 6.121094 252.484375 C 5.910156 250.371094 5.75 248.25 5.644531 246.128906 C 5.539062 244.003906 5.484375 241.882812 5.480469 239.753906 C 5.480469 170.664062 123.492188 15.867188 128.515625 9.308594 C 129.335938 8.238281 130.351562 7.40625 131.558594 6.808594 C 132.769531 6.214844 134.046875 5.917969 135.390625 5.917969 C 136.738281 5.917969 138.019531 6.214844 139.226562 6.8125 C 140.433594 7.410156 141.449219 8.242188 142.269531 9.3125 C 142.664062 9.828125 181.925781 61.273438 215.648438 117.332031 C 215.953125 117.835938 216.203125 118.367188 216.398438 118.921875 C 216.59375 119.480469 216.730469 120.050781 216.8125 120.632812 C 216.890625 121.21875 216.910156 121.804688 216.867188 122.394531 C 216.828125 122.980469 216.730469 123.558594 216.570312 124.128906 C 216.410156 124.695312 216.195312 125.242188 215.925781 125.765625 C 215.65625 126.292969 215.335938 126.78125 214.964844 127.242188 C 214.59375 127.699219 214.179688 128.117188 213.722656 128.492188 C 213.265625 128.863281 212.777344 129.1875 212.257812 129.460938 C 210.144531 130.574219 208.074219 131.765625 206.050781 133.035156 C 204.027344 134.300781 202.054688 135.644531 200.128906 137.0625 C 198.207031 138.476562 196.339844 139.964844 194.527344 141.523438 C 192.71875 143.078125 190.96875 144.703125 189.277344 146.390625 C 187.589844 148.078125 185.96875 149.828125 184.410156 151.640625 C 182.851562 153.449219 181.367188 155.316406 179.949219 157.238281 C 178.53125 159.164062 177.1875 161.136719 175.921875 163.160156 C 174.652344 165.183594 173.460938 167.25 172.347656 169.363281 C 171.234375 171.476562 170.203125 173.628906 169.253906 175.820312 C 168.300781 178.011719 167.433594 180.234375 166.648438 182.492188 C 165.867188 184.746094 165.167969 187.027344 164.554688 189.335938 C 163.945312 191.644531 163.417969 193.972656 162.980469 196.324219 C 162.546875 198.671875 162.195312 201.03125 161.9375 203.40625 C 161.679688 205.78125 161.507812 208.160156 161.429688 210.546875 C 161.347656 212.933594 161.355469 215.320312 161.457031 217.707031 C 161.554688 220.09375 161.746094 222.472656 162.023438 224.84375 C 162.300781 227.21875 162.667969 229.574219 163.125 231.921875 C 163.578125 234.265625 164.121094 236.589844 164.753906 238.890625 C 165.382812 241.195312 166.097656 243.472656 166.898438 245.722656 C 167.703125 247.972656 168.585938 250.1875 169.554688 252.371094 C 170.523438 254.554688 171.574219 256.699219 172.703125 258.804688 C 173.832031 260.90625 175.039062 262.964844 176.324219 264.980469 C 177.609375 266.992188 178.964844 268.957031 180.398438 270.867188 C 181.832031 272.777344 183.332031 274.632812 184.902344 276.433594 C 186.476562 278.230469 188.113281 279.96875 189.816406 281.644531 C 191.515625 283.316406 193.28125 284.925781 195.101562 286.46875 C 196.925781 288.011719 198.804688 289.484375 200.738281 290.886719 C 202.671875 292.285156 204.65625 293.613281 206.691406 294.867188 C 208.726562 296.117188 210.800781 297.292969 212.925781 298.386719 C 215.046875 299.484375 217.207031 300.496094 219.40625 301.429688 C 221.605469 302.363281 223.835938 303.214844 226.097656 303.980469 C 228.359375 304.746094 230.648438 305.425781 232.960938 306.019531 C 233.308594 306.105469 233.648438 306.214844 233.980469 306.34375 C 234.316406 306.476562 234.640625 306.625 234.957031 306.796875 C 235.269531 306.964844 235.574219 307.15625 235.867188 307.363281 C 236.15625 307.574219 236.433594 307.796875 236.699219 308.039062 C 236.960938 308.285156 237.210938 308.542969 237.441406 308.816406 C 237.671875 309.089844 237.886719 309.375 238.082031 309.675781 C 238.277344 309.976562 238.457031 310.285156 238.613281 310.609375 C 238.769531 310.929688 238.90625 311.261719 239.023438 311.601562 C 239.140625 311.9375 239.234375 312.285156 239.308594 312.632812 C 239.382812 312.984375 239.433594 313.339844 239.460938 313.695312 C 239.492188 314.054688 239.5 314.410156 239.484375 314.769531 C 239.46875 315.125 239.433594 315.484375 239.371094 315.835938 C 239.3125 316.1875 239.234375 316.539062 239.128906 316.882812 C 239.027344 317.222656 238.90625 317.558594 238.761719 317.886719 C 238.617188 318.214844 238.453125 318.535156 238.269531 318.84375 C 238.085938 319.148438 237.882812 319.445312 237.664062 319.726562 C 234.65625 323.617188 231.433594 327.324219 228 330.84375 C 224.566406 334.363281 220.941406 337.675781 217.128906 340.78125 C 213.316406 343.886719 209.335938 346.761719 205.195312 349.414062 C 201.050781 352.0625 196.769531 354.464844 192.351562 356.621094 C 187.933594 358.78125 183.402344 360.679688 178.765625 362.316406 C 174.128906 363.953125 169.414062 365.324219 164.621094 366.421875 C 159.828125 367.519531 154.988281 368.339844 150.101562 368.882812 C 145.210938 369.425781 140.308594 369.6875 135.390625 369.667969 Z M 135.390625 29.035156 C 109.960938 63.46875 22.804688 185.453125 22.804688 239.753906 C 22.804688 241.597656 22.851562 243.4375 22.945312 245.277344 C 23.035156 247.117188 23.175781 248.953125 23.355469 250.789062 C 23.539062 252.621094 23.765625 254.449219 24.039062 256.269531 C 24.308594 258.089844 24.625 259.90625 24.988281 261.710938 C 25.347656 263.519531 25.753906 265.316406 26.203125 267.101562 C 26.652344 268.886719 27.144531 270.664062 27.679688 272.425781 C 28.214844 274.1875 28.792969 275.933594 29.414062 277.667969 C 30.039062 279.402344 30.703125 281.121094 31.40625 282.820312 C 32.113281 284.523438 32.859375 286.207031 33.648438 287.871094 C 34.4375 289.535156 35.265625 291.179688 36.136719 292.804688 C 37.003906 294.429688 37.914062 296.03125 38.859375 297.609375 C 39.808594 299.191406 40.792969 300.746094 41.816406 302.277344 C 42.839844 303.808594 43.902344 305.3125 45 306.792969 C 46.097656 308.273438 47.230469 309.722656 48.398438 311.148438 C 49.566406 312.570312 50.769531 313.964844 52.007812 315.332031 C 53.246094 316.695312 54.515625 318.027344 55.816406 319.332031 C 57.121094 320.632812 58.453125 321.902344 59.816406 323.140625 C 61.183594 324.378906 62.578125 325.582031 64 326.75 C 65.425781 327.917969 66.875 329.050781 68.355469 330.148438 C 69.835938 331.246094 71.339844 332.308594 72.871094 333.332031 C 74.402344 334.355469 75.957031 335.339844 77.539062 336.289062 C 79.117188 337.234375 80.71875 338.144531 82.34375 339.011719 C 83.96875 339.882812 85.613281 340.710938 87.277344 341.5 C 88.941406 342.289062 90.625 343.035156 92.324219 343.742188 C 94.027344 344.445312 95.746094 345.109375 97.480469 345.730469 C 99.214844 346.355469 100.960938 346.933594 102.722656 347.46875 C 104.484375 348.003906 106.261719 348.496094 108.046875 348.945312 C 109.832031 349.394531 111.628906 349.800781 113.4375 350.160156 C 115.242188 350.519531 117.054688 350.839844 118.878906 351.109375 C 120.699219 351.382812 122.527344 351.609375 124.359375 351.792969 C 126.195312 351.972656 128.03125 352.109375 129.871094 352.203125 C 131.710938 352.296875 133.550781 352.34375 135.390625 352.34375 C 139.121094 352.359375 142.84375 352.1875 146.558594 351.828125 C 150.269531 351.46875 153.957031 350.925781 157.617188 350.199219 C 161.273438 349.46875 164.886719 348.558594 168.453125 347.464844 C 172.019531 346.375 175.523438 345.105469 178.964844 343.664062 C 182.40625 342.21875 185.761719 340.605469 189.042969 338.824219 C 192.320312 337.042969 195.5 335.101562 198.582031 333.003906 C 201.664062 330.902344 204.636719 328.652344 207.492188 326.253906 C 210.347656 323.855469 213.078125 321.316406 215.679688 318.644531 C 213.273438 317.703125 210.902344 316.683594 208.5625 315.578125 C 206.226562 314.472656 203.929688 313.289062 201.675781 312.027344 C 199.417969 310.765625 197.210938 309.429688 195.046875 308.015625 C 192.882812 306.601562 190.769531 305.113281 188.710938 303.554688 C 186.648438 301.992188 184.644531 300.363281 182.695312 298.667969 C 180.746094 296.96875 178.855469 295.207031 177.03125 293.378906 C 175.203125 291.550781 173.441406 289.660156 171.742188 287.710938 C 170.042969 285.761719 168.417969 283.757812 166.855469 281.695312 C 165.296875 279.636719 163.808594 277.523438 162.398438 275.359375 C 160.984375 273.195312 159.644531 270.984375 158.382812 268.730469 C 157.121094 266.472656 155.9375 264.175781 154.835938 261.839844 C 153.730469 259.503906 152.710938 257.128906 151.769531 254.722656 C 150.828125 252.3125 149.972656 249.878906 149.199219 247.410156 C 148.425781 244.945312 147.742188 242.453125 147.140625 239.941406 C 146.539062 237.425781 146.023438 234.894531 145.597656 232.34375 C 145.171875 229.796875 144.832031 227.234375 144.582031 224.660156 C 144.332031 222.089844 144.171875 219.511719 144.097656 216.925781 C 144.023438 214.34375 144.039062 211.761719 144.144531 209.175781 C 144.25 206.59375 144.445312 204.019531 144.726562 201.449219 C 145.007812 198.878906 145.378906 196.324219 145.839844 193.78125 C 146.296875 191.234375 146.84375 188.710938 147.476562 186.203125 C 148.105469 183.699219 148.824219 181.21875 149.628906 178.761719 C 150.429688 176.304688 151.316406 173.878906 152.289062 171.480469 C 153.257812 169.085938 154.308594 166.726562 155.441406 164.402344 C 156.574219 162.078125 157.789062 159.796875 159.078125 157.558594 C 160.367188 155.316406 161.734375 153.125 163.171875 150.980469 C 164.613281 148.832031 166.128906 146.738281 167.710938 144.699219 C 169.296875 142.65625 170.949219 140.671875 172.671875 138.742188 C 174.394531 136.816406 176.179688 134.949219 178.03125 133.144531 C 179.878906 131.339844 181.789062 129.601562 183.761719 127.925781 C 185.730469 126.253906 187.757812 124.648438 189.835938 123.117188 C 191.917969 121.582031 194.046875 120.121094 196.230469 118.734375 C 172.605469 80.296875 147.265625 45.117188 135.390625 29.035156 Z M 135.390625 29.035156 " clip-rule="nonzero"/></clipPath><linearGradient x1="1.448501" gradientTransform="matrix(8.660714, 0, 0, 8.660714, -20.500699, -20.06567)" y1="43.448501" x2="35.958794" gradientUnits="userSpaceOnUse" y2="8.938207" id="156aab312b"><stop stop-opacity="1" stop-color="rgb(25.849915%, 47.660828%, 74.049377%)" offset="0"/><stop stop-opacity="1" stop-color="rgb(25.805664%, 47.801208%, 74.005127%)" offset="0.015625"/><stop stop-opacity="1" stop-color="rgb(25.718689%, 48.085022%, 73.918152%)" offset="0.03125"/><stop stop-opacity="1" stop-color="rgb(25.630188%, 48.368835%, 73.831177%)" offset="0.046875"/><stop stop-opacity="1" stop-color="rgb(25.543213%, 48.652649%, 73.744202%)" offset="0.0625"/><stop stop-opacity="1" stop-color="rgb(25.456238%, 48.936462%, 73.655701%)" offset="0.078125"/><stop stop-opacity="1" stop-color="rgb(25.369263%, 49.220276%, 73.568726%)" offset="0.09375"/><stop stop-opacity="1" stop-color="rgb(25.282288%, 49.504089%, 73.48175%)" offset="0.109375"/><stop stop-opacity="1" stop-color="rgb(25.193787%, 49.787903%, 73.394775%)" offset="0.125"/><stop stop-opacity="1" stop-color="rgb(25.106812%, 50.071716%, 73.3078%)" offset="0.140625"/><stop stop-opacity="1" stop-color="rgb(25.019836%, 50.354004%, 73.219299%)" offset="0.15625"/><stop stop-opacity="1" stop-color="rgb(24.932861%, 50.637817%, 73.132324%)" offset="0.171875"/><stop stop-opacity="1" stop-color="rgb(24.845886%, 50.921631%, 73.045349%)" offset="0.1875"/><stop stop-opacity="1" stop-color="rgb(24.758911%, 51.205444%, 72.958374%)" offset="0.203125"/><stop stop-opacity="1" stop-color="rgb(24.688721%, 51.446533%, 72.880554%)" offset="0.210938"/><stop stop-opacity="1" stop-color="rgb(24.633789%, 51.663208%, 72.805786%)" offset="0.21875"/><stop stop-opacity="1" stop-color="rgb(24.577332%, 51.896667%, 72.723389%)" offset="0.226563"/><stop stop-opacity="1" stop-color="rgb(24.519348%, 52.128601%, 72.640991%)" offset="0.234375"/><stop stop-opacity="1" stop-color="rgb(24.462891%, 52.362061%, 72.557068%)" offset="0.242188"/><stop stop-opacity="1" stop-color="rgb(24.404907%, 52.59552%, 72.47467%)" offset="0.25"/><stop stop-opacity="1" stop-color="rgb(24.34845%, 52.827454%, 72.392273%)" offset="0.257813"/><stop stop-opacity="1" stop-color="rgb(24.290466%, 53.060913%, 72.309875%)" offset="0.265625"/><stop stop-opacity="1" stop-color="rgb(24.234009%, 53.292847%, 72.227478%)" offset="0.273438"/><stop stop-opacity="1" stop-color="rgb(24.176025%, 53.526306%, 72.145081%)" offset="0.28125"/><stop stop-opacity="1" stop-color="rgb(24.119568%, 53.759766%, 72.062683%)" offset="0.289063"/><stop stop-opacity="1" stop-color="rgb(24.061584%, 53.991699%, 71.980286%)" offset="0.296875"/><stop stop-opacity="1" stop-color="rgb(24.005127%, 54.225159%, 71.896362%)" offset="0.304688"/><stop stop-opacity="1" stop-color="rgb(23.948669%, 54.458618%, 71.813965%)" offset="0.3125"/><stop stop-opacity="1" stop-color="rgb(23.890686%, 54.690552%, 71.731567%)" offset="0.320312"/><stop stop-opacity="1" stop-color="rgb(23.834229%, 54.924011%, 71.64917%)" offset="0.328125"/><stop stop-opacity="1" stop-color="rgb(23.776245%, 55.155945%, 71.566772%)" offset="0.335938"/><stop stop-opacity="1" stop-color="rgb(23.719788%, 55.389404%, 71.484375%)" offset="0.34375"/><stop stop-opacity="1" stop-color="rgb(23.661804%, 55.622864%, 71.401978%)" offset="0.351563"/><stop stop-opacity="1" stop-color="rgb(23.605347%, 55.854797%, 71.31958%)" offset="0.359375"/><stop stop-opacity="1" stop-color="rgb(23.547363%, 56.088257%, 71.237183%)" offset="0.367188"/><stop stop-opacity="1" stop-color="rgb(23.490906%, 56.321716%, 71.153259%)" offset="0.375"/><stop stop-opacity="1" stop-color="rgb(23.432922%, 56.55365%, 71.070862%)" offset="0.382813"/><stop stop-opacity="1" stop-color="rgb(23.376465%, 56.787109%, 70.988464%)" offset="0.390625"/><stop stop-opacity="1" stop-color="rgb(23.318481%, 57.019043%, 70.906067%)" offset="0.391486"/><stop stop-opacity="1" stop-color="rgb(23.291016%, 57.136536%, 70.864868%)" offset="0.398438"/><stop stop-opacity="1" stop-color="rgb(23.262024%, 57.252502%, 70.823669%)" offset="0.40625"/><stop stop-opacity="1" stop-color="rgb(23.205566%, 57.485962%, 70.741272%)" offset="0.414063"/><stop stop-opacity="1" stop-color="rgb(23.147583%, 57.717896%, 70.658875%)" offset="0.421875"/><stop stop-opacity="1" stop-color="rgb(23.091125%, 57.951355%, 70.576477%)" offset="0.429688"/><stop stop-opacity="1" stop-color="rgb(23.033142%, 58.184814%, 70.49408%)" offset="0.4375"/><stop stop-opacity="1" stop-color="rgb(22.976685%, 58.416748%, 70.410156%)" offset="0.445313"/><stop stop-opacity="1" stop-color="rgb(22.918701%, 58.650208%, 70.327759%)" offset="0.453125"/><stop stop-opacity="1" stop-color="rgb(22.862244%, 58.882141%, 70.245361%)" offset="0.460938"/><stop stop-opacity="1" stop-color="rgb(22.80426%, 59.115601%, 70.162964%)" offset="0.46875"/><stop stop-opacity="1" stop-color="rgb(22.747803%, 59.34906%, 70.080566%)" offset="0.476563"/><stop stop-opacity="1" stop-color="rgb(22.689819%, 59.580994%, 69.998169%)" offset="0.484375"/><stop stop-opacity="1" stop-color="rgb(22.633362%, 59.814453%, 69.915771%)" offset="0.492188"/><stop stop-opacity="1" stop-color="rgb(22.575378%, 60.046387%, 69.833374%)" offset="0.5"/><stop stop-opacity="1" stop-color="rgb(22.518921%, 60.279846%, 69.750977%)" offset="0.507812"/><stop stop-opacity="1" stop-color="rgb(22.462463%, 60.513306%, 69.667053%)" offset="0.515625"/><stop stop-opacity="1" stop-color="rgb(22.40448%, 60.745239%, 69.584656%)" offset="0.523438"/><stop stop-opacity="1" stop-color="rgb(22.348022%, 60.978699%, 69.502258%)" offset="0.53125"/><stop stop-opacity="1" stop-color="rgb(22.290039%, 61.212158%, 69.419861%)" offset="0.539063"/><stop stop-opacity="1" stop-color="rgb(22.233582%, 61.444092%, 69.337463%)" offset="0.546875"/><stop stop-opacity="1" stop-color="rgb(22.175598%, 61.677551%, 69.255066%)" offset="0.554688"/><stop stop-opacity="1" stop-color="rgb(22.119141%, 61.909485%, 69.172668%)" offset="0.5625"/><stop stop-opacity="1" stop-color="rgb(22.061157%, 62.142944%, 69.090271%)" offset="0.570313"/><stop stop-opacity="1" stop-color="rgb(22.000122%, 62.387085%, 69.006348%)" offset="0.578125"/><stop stop-opacity="1" stop-color="rgb(21.928406%, 62.654114%, 68.917847%)" offset="0.585938"/><stop stop-opacity="1" stop-color="rgb(21.852112%, 62.936401%, 68.826294%)" offset="0.59375"/><stop stop-opacity="1" stop-color="rgb(21.774292%, 63.220215%, 68.736267%)" offset="0.601562"/><stop stop-opacity="1" stop-color="rgb(21.696472%, 63.502502%, 68.64624%)" offset="0.608514"/><stop stop-opacity="1" stop-color="rgb(21.658325%, 63.644409%, 68.600464%)" offset="0.609375"/><stop stop-opacity="1" stop-color="rgb(21.620178%, 63.78479%, 68.554688%)" offset="0.617188"/><stop stop-opacity="1" stop-color="rgb(21.542358%, 64.068604%, 68.464661%)" offset="0.625"/><stop stop-opacity="1" stop-color="rgb(21.466064%, 64.350891%, 68.374634%)" offset="0.632812"/><stop stop-opacity="1" stop-color="rgb(21.388245%, 64.633179%, 68.284607%)" offset="0.640625"/><stop stop-opacity="1" stop-color="rgb(21.310425%, 64.916992%, 68.193054%)" offset="0.648438"/><stop stop-opacity="1" stop-color="rgb(21.234131%, 65.19928%, 68.103027%)" offset="0.65625"/><stop stop-opacity="1" stop-color="rgb(21.156311%, 65.481567%, 68.013%)" offset="0.664062"/><stop stop-opacity="1" stop-color="rgb(21.078491%, 65.765381%, 67.922974%)" offset="0.671875"/><stop stop-opacity="1" stop-color="rgb(21.002197%, 66.047668%, 67.831421%)" offset="0.679687"/><stop stop-opacity="1" stop-color="rgb(20.924377%, 66.329956%, 67.741394%)" offset="0.6875"/><stop stop-opacity="1" stop-color="rgb(20.846558%, 66.61377%, 67.651367%)" offset="0.695312"/><stop stop-opacity="1" stop-color="rgb(20.770264%, 66.896057%, 67.56134%)" offset="0.703125"/><stop stop-opacity="1" stop-color="rgb(20.692444%, 67.178345%, 67.469788%)" offset="0.710938"/><stop stop-opacity="1" stop-color="rgb(20.614624%, 67.462158%, 67.379761%)" offset="0.71875"/><stop stop-opacity="1" stop-color="rgb(20.53833%, 67.744446%, 67.289734%)" offset="0.726563"/><stop stop-opacity="1" stop-color="rgb(20.46051%, 68.026733%, 67.198181%)" offset="0.734375"/><stop stop-opacity="1" stop-color="rgb(20.384216%, 68.310547%, 67.108154%)" offset="0.742188"/><stop stop-opacity="1" stop-color="rgb(20.306396%, 68.592834%, 67.018127%)" offset="0.75"/><stop stop-opacity="1" stop-color="rgb(20.228577%, 68.875122%, 66.928101%)" offset="0.757812"/><stop stop-opacity="1" stop-color="rgb(20.152283%, 69.158936%, 66.836548%)" offset="0.765625"/><stop stop-opacity="1" stop-color="rgb(20.074463%, 69.441223%, 66.746521%)" offset="0.773438"/><stop stop-opacity="1" stop-color="rgb(19.996643%, 69.723511%, 66.656494%)" offset="0.78125"/><stop stop-opacity="1" stop-color="rgb(19.920349%, 70.007324%, 66.566467%)" offset="0.789062"/><stop stop-opacity="1" stop-color="rgb(19.842529%, 70.289612%, 66.474915%)" offset="0.796875"/><stop stop-opacity="1" stop-color="rgb(19.764709%, 70.571899%, 66.384888%)" offset="0.804688"/><stop stop-opacity="1" stop-color="rgb(19.688416%, 70.855713%, 66.294861%)" offset="0.8125"/><stop stop-opacity="1" stop-color="rgb(19.610596%, 71.138%, 66.204834%)" offset="0.820313"/><stop stop-opacity="1" stop-color="rgb(19.532776%, 71.420288%, 66.113281%)" offset="0.828125"/><stop stop-opacity="1" stop-color="rgb(19.456482%, 71.704102%, 66.023254%)" offset="0.835938"/><stop stop-opacity="1" stop-color="rgb(19.378662%, 71.986389%, 65.933228%)" offset="0.84375"/><stop stop-opacity="1" stop-color="rgb(19.302368%, 72.268677%, 65.843201%)" offset="0.851562"/><stop stop-opacity="1" stop-color="rgb(19.224548%, 72.55249%, 65.751648%)" offset="0.859375"/><stop stop-opacity="1" stop-color="rgb(19.146729%, 72.834778%, 65.661621%)" offset="0.867188"/><stop stop-opacity="1" stop-color="rgb(19.070435%, 73.117065%, 65.571594%)" offset="0.875"/><stop stop-opacity="1" stop-color="rgb(18.992615%, 73.400879%, 65.480042%)" offset="0.882813"/><stop stop-opacity="1" stop-color="rgb(18.914795%, 73.683167%, 65.390015%)" offset="0.890625"/><stop stop-opacity="1" stop-color="rgb(18.838501%, 73.965454%, 65.299988%)" offset="0.898438"/><stop stop-opacity="1" stop-color="rgb(18.760681%, 74.249268%, 65.209961%)" offset="0.90625"/><stop stop-opacity="1" stop-color="rgb(18.682861%, 74.531555%, 65.118408%)" offset="0.914062"/><stop stop-opacity="1" stop-color="rgb(18.606567%, 74.813843%, 65.028381%)" offset="0.921875"/><stop stop-opacity="1" stop-color="rgb(18.528748%, 75.097656%, 64.938354%)" offset="0.929688"/><stop stop-opacity="1" stop-color="rgb(18.450928%, 75.379944%, 64.848328%)" offset="0.9375"/><stop stop-opacity="1" stop-color="rgb(18.374634%, 75.662231%, 64.756775%)" offset="0.945313"/><stop stop-opacity="1" stop-color="rgb(18.296814%, 75.946045%, 64.666748%)" offset="0.953125"/><stop stop-opacity="1" stop-color="rgb(18.22052%, 76.228333%, 64.576721%)" offset="0.960938"/><stop stop-opacity="1" stop-color="rgb(18.1427%, 76.51062%, 64.486694%)" offset="0.96875"/><stop stop-opacity="1" stop-color="rgb(18.06488%, 76.794434%, 64.395142%)" offset="0.976562"/><stop stop-opacity="1" stop-color="rgb(17.988586%, 77.076721%, 64.305115%)" offset="0.984375"/><stop stop-opacity="1" stop-color="rgb(17.910767%, 77.359009%, 64.215088%)" offset="0.992188"/><stop stop-opacity="1" stop-color="rgb(17.832947%, 77.642822%, 64.125061%)" offset="1"/></linearGradient><clipPath id="3035f69512"><path d="M 5.480469 208 L 240 208 L 240 369.667969 L 5.480469 369.667969 Z M 5.480469 208 " clip-rule="nonzero"/></clipPath><clipPath id="4c77ff5af4"><path d="M 135.390625 369.667969 C 133.265625 369.664062 131.144531 369.609375 129.019531 369.503906 C 126.898438 369.398438 124.777344 369.238281 122.664062 369.027344 C 120.546875 368.816406 118.441406 368.554688 116.335938 368.242188 C 114.234375 367.929688 112.140625 367.5625 110.058594 367.144531 C 107.972656 366.730469 105.902344 366.261719 103.839844 365.746094 C 101.777344 365.226562 99.730469 364.660156 97.695312 364.039062 C 95.664062 363.421875 93.648438 362.753906 91.644531 362.035156 C 89.644531 361.320312 87.664062 360.554688 85.699219 359.738281 C 83.738281 358.925781 81.792969 358.0625 79.875 357.152344 C 77.953125 356.242188 76.054688 355.285156 74.179688 354.285156 C 72.308594 353.28125 70.457031 352.234375 68.636719 351.140625 C 66.8125 350.046875 65.019531 348.910156 63.25 347.726562 C 61.484375 346.546875 59.746094 345.324219 58.042969 344.054688 C 56.335938 342.789062 54.660156 341.484375 53.015625 340.132812 C 51.375 338.785156 49.765625 337.398438 48.191406 335.96875 C 46.617188 334.542969 45.078125 333.078125 43.574219 331.574219 C 42.070312 330.070312 40.605469 328.53125 39.179688 326.957031 C 37.75 325.382812 36.363281 323.773438 35.015625 322.132812 C 33.664062 320.488281 32.359375 318.8125 31.089844 317.105469 C 29.824219 315.398438 28.601562 313.664062 27.417969 311.894531 C 26.238281 310.128906 25.101562 308.335938 24.007812 306.511719 C 22.914062 304.6875 21.867188 302.839844 20.863281 300.964844 C 19.859375 299.09375 18.90625 297.195312 17.996094 295.273438 C 17.085938 293.351562 16.222656 291.410156 15.410156 289.449219 C 14.59375 287.484375 13.828125 285.503906 13.109375 283.503906 C 12.394531 281.5 11.726562 279.484375 11.109375 277.449219 C 10.488281 275.417969 9.921875 273.371094 9.402344 271.308594 C 8.886719 269.246094 8.417969 267.175781 8 265.089844 C 7.585938 263.003906 7.21875 260.914062 6.90625 258.808594 C 6.59375 256.707031 6.332031 254.601562 6.121094 252.484375 C 5.910156 250.371094 5.75 248.25 5.644531 246.128906 C 5.539062 244.003906 5.484375 241.882812 5.480469 239.753906 C 5.621094 232.019531 6.6875 224.414062 8.6875 216.9375 C 8.824219 216.402344 9.007812 215.886719 9.242188 215.386719 C 9.476562 214.886719 9.753906 214.417969 10.078125 213.96875 C 10.402344 213.523438 10.765625 213.113281 11.167969 212.738281 C 11.574219 212.359375 12.007812 212.027344 12.472656 211.734375 C 12.941406 211.4375 13.429688 211.191406 13.941406 210.992188 C 14.457031 210.792969 14.984375 210.640625 15.527344 210.542969 C 16.066406 210.441406 16.613281 210.394531 17.164062 210.398438 C 17.714844 210.402344 18.261719 210.460938 18.800781 210.566406 C 23.289062 211.523438 27.703125 212.734375 32.046875 214.199219 C 41.664062 217.609375 51.574219 219.199219 61.777344 218.972656 C 72.015625 219.203125 81.960938 217.605469 91.613281 214.183594 C 102.980469 210.1875 114.6875 208.320312 126.730469 208.578125 C 136.332031 208.371094 145.761719 209.558594 155.015625 212.132812 C 155.910156 212.355469 156.746094 212.707031 157.53125 213.195312 C 158.3125 213.683594 159 214.28125 159.59375 214.984375 C 160.1875 215.691406 160.65625 216.46875 161.003906 217.324219 C 161.347656 218.179688 161.554688 219.066406 161.621094 219.984375 C 161.769531 222.472656 162.019531 224.949219 162.367188 227.417969 C 162.714844 229.886719 163.160156 232.335938 163.703125 234.769531 C 164.242188 237.203125 164.878906 239.609375 165.609375 241.992188 C 166.339844 244.375 167.164062 246.722656 168.082031 249.039062 C 169 251.359375 170.003906 253.636719 171.101562 255.875 C 172.199219 258.109375 173.378906 260.300781 174.648438 262.445312 C 175.917969 264.589844 177.273438 266.683594 178.707031 268.71875 C 180.140625 270.757812 181.652344 272.734375 183.246094 274.652344 C 184.835938 276.570312 186.5 278.425781 188.238281 280.210938 C 189.972656 281.996094 191.777344 283.714844 193.652344 285.359375 C 195.523438 287.003906 197.457031 288.570312 199.453125 290.0625 C 201.449219 291.554688 203.503906 292.964844 205.609375 294.292969 C 207.71875 295.621094 209.875 296.867188 212.082031 298.027344 C 214.289062 299.183594 216.535156 300.253906 218.828125 301.238281 C 221.117188 302.21875 223.441406 303.109375 225.804688 303.90625 C 228.164062 304.703125 230.550781 305.410156 232.96875 306.019531 C 233.316406 306.105469 233.65625 306.214844 233.988281 306.347656 C 234.324219 306.476562 234.648438 306.628906 234.960938 306.796875 C 235.277344 306.96875 235.582031 307.160156 235.871094 307.367188 C 236.164062 307.574219 236.441406 307.800781 236.703125 308.042969 C 236.96875 308.285156 237.214844 308.546875 237.445312 308.820312 C 237.675781 309.09375 237.890625 309.378906 238.085938 309.679688 C 238.28125 309.980469 238.457031 310.289062 238.613281 310.613281 C 238.773438 310.933594 238.910156 311.265625 239.023438 311.601562 C 239.140625 311.941406 239.234375 312.285156 239.308594 312.636719 C 239.382812 312.988281 239.433594 313.339844 239.460938 313.699219 C 239.492188 314.054688 239.5 314.414062 239.484375 314.769531 C 239.46875 315.128906 239.429688 315.484375 239.371094 315.835938 C 239.3125 316.191406 239.230469 316.539062 239.128906 316.882812 C 239.027344 317.226562 238.902344 317.5625 238.761719 317.890625 C 238.617188 318.21875 238.453125 318.535156 238.269531 318.84375 C 238.085938 319.148438 237.882812 319.445312 237.664062 319.726562 C 234.65625 323.617188 231.433594 327.324219 228 330.84375 C 224.566406 334.363281 220.941406 337.675781 217.128906 340.78125 C 213.316406 343.886719 209.335938 346.761719 205.195312 349.414062 C 201.050781 352.0625 196.769531 354.464844 192.351562 356.621094 C 187.929688 358.78125 183.402344 360.679688 178.765625 362.316406 C 174.128906 363.953125 169.414062 365.324219 164.621094 366.421875 C 159.828125 367.519531 154.988281 368.339844 150.101562 368.882812 C 145.210938 369.425781 140.308594 369.6875 135.390625 369.667969 Z M 23.691406 229.726562 C 23.125 233.042969 22.832031 236.386719 22.804688 239.753906 C 22.804688 241.597656 22.851562 243.4375 22.945312 245.277344 C 23.035156 247.117188 23.175781 248.953125 23.355469 250.789062 C 23.539062 252.621094 23.765625 254.449219 24.039062 256.269531 C 24.308594 258.089844 24.625 259.90625 24.988281 261.710938 C 25.347656 263.519531 25.753906 265.316406 26.203125 267.101562 C 26.652344 268.886719 27.144531 270.664062 27.679688 272.425781 C 28.214844 274.1875 28.792969 275.933594 29.414062 277.667969 C 30.039062 279.402344 30.703125 281.121094 31.40625 282.820312 C 32.113281 284.523438 32.859375 286.207031 33.648438 287.871094 C 34.4375 289.535156 35.265625 291.179688 36.136719 292.804688 C 37.003906 294.429688 37.914062 296.03125 38.859375 297.609375 C 39.808594 299.191406 40.792969 300.746094 41.816406 302.277344 C 42.839844 303.808594 43.902344 305.3125 45 306.792969 C 46.097656 308.273438 47.230469 309.722656 48.398438 311.148438 C 49.566406 312.570312 50.769531 313.964844 52.007812 315.332031 C 53.246094 316.695312 54.515625 318.027344 55.816406 319.332031 C 57.121094 320.632812 58.453125 321.902344 59.816406 323.140625 C 61.183594 324.378906 62.578125 325.582031 64 326.75 C 65.425781 327.917969 66.875 329.050781 68.355469 330.148438 C 69.835938 331.246094 71.339844 332.308594 72.871094 333.332031 C 74.402344 334.355469 75.957031 335.339844 77.539062 336.289062 C 79.117188 337.234375 80.71875 338.144531 82.34375 339.011719 C 83.96875 339.882812 85.613281 340.710938 87.277344 341.5 C 88.941406 342.289062 90.625 343.035156 92.324219 343.742188 C 94.027344 344.445312 95.746094 345.109375 97.480469 345.730469 C 99.214844 346.355469 100.960938 346.933594 102.722656 347.46875 C 104.484375 348.003906 106.261719 348.496094 108.046875 348.945312 C 109.832031 349.394531 111.628906 349.800781 113.4375 350.160156 C 115.242188 350.519531 117.054688 350.839844 118.878906 351.109375 C 120.699219 351.382812 122.527344 351.609375 124.359375 351.792969 C 126.195312 351.972656 128.03125 352.109375 129.871094 352.203125 C 131.710938 352.296875 133.550781 352.34375 135.390625 352.34375 C 139.121094 352.359375 142.84375 352.1875 146.558594 351.828125 C 150.269531 351.46875 153.957031 350.925781 157.617188 350.199219 C 161.273438 349.46875 164.886719 348.558594 168.453125 347.464844 C 172.019531 346.375 175.523438 345.105469 178.964844 343.664062 C 182.40625 342.21875 185.761719 340.605469 189.042969 338.824219 C 192.320312 337.042969 195.5 335.101562 198.582031 333.003906 C 201.664062 330.902344 204.636719 328.652344 207.492188 326.253906 C 210.347656 323.855469 213.078125 321.316406 215.679688 318.644531 C 213.324219 317.734375 211 316.746094 208.710938 315.675781 C 206.421875 314.609375 204.167969 313.464844 201.957031 312.242188 C 199.742188 311.023438 197.574219 309.726562 195.449219 308.359375 C 193.324219 306.992188 191.25 305.554688 189.222656 304.046875 C 187.195312 302.535156 185.222656 300.960938 183.300781 299.320312 C 181.378906 297.675781 179.515625 295.972656 177.710938 294.203125 C 175.90625 292.433594 174.164062 290.605469 172.484375 288.71875 C 170.800781 286.832031 169.1875 284.890625 167.636719 282.894531 C 166.085938 280.898438 164.605469 278.851562 163.195312 276.757812 C 161.785156 274.660156 160.445312 272.519531 159.179688 270.332031 C 157.914062 268.144531 156.726562 265.917969 155.609375 263.648438 C 154.496094 261.382812 153.457031 259.078125 152.5 256.742188 C 151.539062 254.402344 150.664062 252.035156 149.863281 249.636719 C 149.066406 247.238281 148.347656 244.816406 147.714844 242.371094 C 147.082031 239.925781 146.53125 237.460938 146.0625 234.976562 C 145.597656 232.492188 145.214844 229.996094 144.914062 227.488281 C 138.90625 226.34375 132.847656 225.8125 126.730469 225.898438 C 116.492188 225.664062 106.546875 227.261719 96.894531 230.683594 C 85.527344 234.679688 73.820312 236.550781 61.777344 236.292969 C 49.773438 236.519531 38.105469 234.65625 26.769531 230.699219 C 25.738281 230.367188 24.714844 230.042969 23.691406 229.726562 Z M 23.691406 229.726562 " clip-rule="nonzero"/></clipPath><linearGradient x1="3.936501" gradientTransform="matrix(8.660714, 0, 0, 8.660714, -20.500699, -20.06567)" y1="45.9365" x2="26.76166" gradientUnits="userSpaceOnUse" y2="23.11134" id="e8cfbf0684"><stop stop-opacity="1" stop-color="rgb(25.849915%, 47.660828%, 74.049377%)" offset="0"/><stop stop-opacity="1" stop-color="rgb(25.791931%, 47.846985%, 73.991394%)" offset="0.03125"/><stop stop-opacity="1" stop-color="rgb(25.675964%, 48.222351%, 73.876953%)" offset="0.0625"/><stop stop-opacity="1" stop-color="rgb(25.561523%, 48.597717%, 73.760986%)" offset="0.09375"/><stop stop-opacity="1" stop-color="rgb(25.445557%, 48.973083%, 73.64502%)" offset="0.125"/><stop stop-opacity="1" stop-color="rgb(25.32959%, 49.34845%, 73.530579%)" offset="0.15625"/><stop stop-opacity="1" stop-color="rgb(25.215149%, 49.723816%, 73.414612%)" offset="0.1875"/><stop stop-opacity="1" stop-color="rgb(25.099182%, 50.099182%, 73.298645%)" offset="0.21875"/><stop stop-opacity="1" stop-color="rgb(24.983215%, 50.474548%, 73.184204%)" offset="0.25"/><stop stop-opacity="1" stop-color="rgb(24.868774%, 50.849915%, 73.068237%)" offset="0.28125"/><stop stop-opacity="1" stop-color="rgb(24.751282%, 51.228333%, 72.950745%)" offset="0.3125"/><stop stop-opacity="1" stop-color="rgb(24.655151%, 51.574707%, 72.836304%)" offset="0.328125"/><stop stop-opacity="1" stop-color="rgb(24.580383%, 51.882935%, 72.727966%)" offset="0.34375"/><stop stop-opacity="1" stop-color="rgb(24.504089%, 52.191162%, 72.618103%)" offset="0.359375"/><stop stop-opacity="1" stop-color="rgb(24.429321%, 52.49939%, 72.509766%)" offset="0.375"/><stop stop-opacity="1" stop-color="rgb(24.353027%, 52.806091%, 72.399902%)" offset="0.390625"/><stop stop-opacity="1" stop-color="rgb(24.278259%, 53.114319%, 72.290039%)" offset="0.40625"/><stop stop-opacity="1" stop-color="rgb(24.201965%, 53.422546%, 72.181702%)" offset="0.408098"/><stop stop-opacity="1" stop-color="rgb(24.165344%, 53.57666%, 72.12677%)" offset="0.421875"/><stop stop-opacity="1" stop-color="rgb(24.127197%, 53.730774%, 72.071838%)" offset="0.4375"/><stop stop-opacity="1" stop-color="rgb(24.050903%, 54.039001%, 71.963501%)" offset="0.453125"/><stop stop-opacity="1" stop-color="rgb(23.974609%, 54.347229%, 71.853638%)" offset="0.46875"/><stop stop-opacity="1" stop-color="rgb(23.899841%, 54.655457%, 71.743774%)" offset="0.484375"/><stop stop-opacity="1" stop-color="rgb(23.823547%, 54.963684%, 71.635437%)" offset="0.5"/><stop stop-opacity="1" stop-color="rgb(23.748779%, 55.271912%, 71.525574%)" offset="0.515625"/><stop stop-opacity="1" stop-color="rgb(23.672485%, 55.578613%, 71.417236%)" offset="0.53125"/><stop stop-opacity="1" stop-color="rgb(23.597717%, 55.886841%, 71.307373%)" offset="0.546875"/><stop stop-opacity="1" stop-color="rgb(23.521423%, 56.195068%, 71.199036%)" offset="0.5625"/><stop stop-opacity="1" stop-color="rgb(23.446655%, 56.503296%, 71.089172%)" offset="0.578125"/><stop stop-opacity="1" stop-color="rgb(23.370361%, 56.811523%, 70.979309%)" offset="0.591902"/><stop stop-opacity="1" stop-color="rgb(23.332214%, 56.965637%, 70.925903%)" offset="0.59375"/><stop stop-opacity="1" stop-color="rgb(23.294067%, 57.119751%, 70.870972%)" offset="0.609375"/><stop stop-opacity="1" stop-color="rgb(23.219299%, 57.427979%, 70.761108%)" offset="0.625"/><stop stop-opacity="1" stop-color="rgb(23.143005%, 57.736206%, 70.652771%)" offset="0.640625"/><stop stop-opacity="1" stop-color="rgb(23.068237%, 58.044434%, 70.542908%)" offset="0.65625"/><stop stop-opacity="1" stop-color="rgb(22.991943%, 58.352661%, 70.43457%)" offset="0.671875"/><stop stop-opacity="1" stop-color="rgb(22.917175%, 58.659363%, 70.324707%)" offset="0.6875"/><stop stop-opacity="1" stop-color="rgb(22.840881%, 58.96759%, 70.214844%)" offset="0.703125"/><stop stop-opacity="1" stop-color="rgb(22.766113%, 59.275818%, 70.106506%)" offset="0.71875"/><stop stop-opacity="1" stop-color="rgb(22.689819%, 59.584045%, 69.996643%)" offset="0.734375"/><stop stop-opacity="1" stop-color="rgb(22.613525%, 59.892273%, 69.888306%)" offset="0.75"/><stop stop-opacity="1" stop-color="rgb(22.538757%, 60.2005%, 69.778442%)" offset="0.765625"/><stop stop-opacity="1" stop-color="rgb(22.462463%, 60.508728%, 69.668579%)" offset="0.78125"/><stop stop-opacity="1" stop-color="rgb(22.387695%, 60.816956%, 69.560242%)" offset="0.796875"/><stop stop-opacity="1" stop-color="rgb(22.311401%, 61.125183%, 69.450378%)" offset="0.8125"/><stop stop-opacity="1" stop-color="rgb(22.236633%, 61.431885%, 69.342041%)" offset="0.828125"/><stop stop-opacity="1" stop-color="rgb(22.160339%, 61.740112%, 69.232178%)" offset="0.84375"/><stop stop-opacity="1" stop-color="rgb(22.085571%, 62.04834%, 69.12384%)" offset="0.859375"/><stop stop-opacity="1" stop-color="rgb(22.0047%, 62.368774%, 69.012451%)" offset="0.875"/><stop stop-opacity="1" stop-color="rgb(21.910095%, 62.721252%, 68.896484%)" offset="0.890625"/><stop stop-opacity="1" stop-color="rgb(21.807861%, 63.095093%, 68.77594%)" offset="0.90625"/><stop stop-opacity="1" stop-color="rgb(21.705627%, 63.468933%, 68.656921%)" offset="0.921875"/><stop stop-opacity="1" stop-color="rgb(21.603394%, 63.842773%, 68.536377%)" offset="0.9375"/><stop stop-opacity="1" stop-color="rgb(21.50116%, 64.21814%, 68.417358%)" offset="0.953125"/><stop stop-opacity="1" stop-color="rgb(21.398926%, 64.59198%, 68.29834%)" offset="0.96875"/><stop stop-opacity="1" stop-color="rgb(21.296692%, 64.96582%, 68.177795%)" offset="0.984375"/><stop stop-opacity="1" stop-color="rgb(21.194458%, 65.339661%, 68.058777%)" offset="1"/></linearGradient><clipPath id="cab134913e"><path d="M 196 160 L 244 160 L 244 223 L 196 223 Z M 196 160 " clip-rule="nonzero"/></clipPath><clipPath id="96946d8d0b"><path d="M 219.519531 222.433594 C 218.75 222.433594 217.984375 222.394531 217.21875 222.316406 C 216.453125 222.242188 215.691406 222.128906 214.9375 221.976562 C 214.183594 221.828125 213.4375 221.640625 212.699219 221.414062 C 211.964844 221.191406 211.242188 220.929688 210.53125 220.636719 C 209.820312 220.339844 209.125 220.011719 208.445312 219.648438 C 207.769531 219.285156 207.109375 218.890625 206.46875 218.460938 C 205.828125 218.035156 205.210938 217.578125 204.617188 217.089844 C 204.023438 216.601562 203.453125 216.082031 202.910156 215.539062 C 202.363281 214.996094 201.847656 214.425781 201.359375 213.832031 C 200.871094 213.234375 200.414062 212.617188 199.988281 211.980469 C 199.558594 211.339844 199.164062 210.679688 198.800781 210 C 198.4375 209.324219 198.109375 208.628906 197.8125 207.917969 C 197.519531 207.207031 197.257812 206.484375 197.035156 205.746094 C 196.8125 205.011719 196.625 204.265625 196.472656 203.511719 C 196.324219 202.753906 196.207031 201.996094 196.132812 201.230469 C 196.054688 200.464844 196.019531 199.695312 196.015625 198.925781 L 196.015625 184.078125 C 196.015625 183.308594 196.050781 182.539062 196.125 181.769531 C 196.199219 181.003906 196.3125 180.242188 196.460938 179.484375 C 196.609375 178.730469 196.796875 177.980469 197.019531 177.246094 C 197.242188 176.507812 197.5 175.78125 197.792969 175.066406 C 198.085938 174.355469 198.414062 173.660156 198.777344 172.980469 C 199.140625 172.296875 199.535156 171.636719 199.964844 170.996094 C 200.390625 170.355469 200.847656 169.734375 201.335938 169.140625 C 201.824219 168.542969 202.339844 167.972656 202.886719 167.425781 C 203.429688 166.878906 204 166.363281 204.597656 165.875 C 205.191406 165.382812 205.808594 164.925781 206.449219 164.496094 C 207.089844 164.066406 207.75 163.671875 208.429688 163.308594 C 209.109375 162.941406 209.804688 162.613281 210.519531 162.316406 C 211.230469 162.023438 211.957031 161.761719 212.691406 161.539062 C 213.429688 161.316406 214.175781 161.128906 214.933594 160.976562 C 215.691406 160.828125 216.453125 160.714844 217.21875 160.636719 C 217.984375 160.5625 218.753906 160.523438 219.527344 160.523438 C 220.296875 160.523438 221.066406 160.5625 221.832031 160.636719 C 222.601562 160.714844 223.359375 160.828125 224.117188 160.976562 C 224.875 161.128906 225.621094 161.316406 226.359375 161.539062 C 227.09375 161.761719 227.820312 162.023438 228.53125 162.316406 C 229.246094 162.613281 229.941406 162.941406 230.621094 163.308594 C 231.300781 163.671875 231.960938 164.066406 232.601562 164.496094 C 233.242188 164.925781 233.859375 165.382812 234.453125 165.875 C 235.050781 166.363281 235.621094 166.878906 236.164062 167.425781 C 236.710938 167.972656 237.226562 168.542969 237.714844 169.140625 C 238.203125 169.734375 238.660156 170.355469 239.085938 170.996094 C 239.515625 171.636719 239.910156 172.296875 240.273438 172.980469 C 240.636719 173.660156 240.964844 174.355469 241.257812 175.066406 C 241.550781 175.78125 241.808594 176.507812 242.03125 177.246094 C 242.253906 177.980469 242.441406 178.730469 242.589844 179.484375 C 242.738281 180.242188 242.851562 181.003906 242.925781 181.769531 C 243 182.539062 243.035156 183.308594 243.035156 184.078125 L 243.035156 198.925781 C 243.03125 199.695312 242.992188 200.464844 242.917969 201.230469 C 242.839844 201.996094 242.726562 202.757812 242.578125 203.511719 C 242.425781 204.265625 242.238281 205.011719 242.015625 205.746094 C 241.789062 206.484375 241.53125 207.207031 241.234375 207.917969 C 240.941406 208.628906 240.613281 209.324219 240.25 210.003906 C 239.886719 210.683594 239.488281 211.339844 239.0625 211.980469 C 238.632812 212.621094 238.175781 213.238281 237.6875 213.832031 C 237.199219 214.429688 236.683594 214.996094 236.136719 215.542969 C 235.59375 216.085938 235.023438 216.601562 234.429688 217.089844 C 233.835938 217.578125 233.21875 218.039062 232.578125 218.464844 C 231.9375 218.894531 231.277344 219.289062 230.597656 219.652344 C 229.921875 220.015625 229.226562 220.34375 228.515625 220.636719 C 227.804688 220.933594 227.078125 221.191406 226.34375 221.417969 C 225.605469 221.640625 224.859375 221.828125 224.105469 221.980469 C 223.351562 222.128906 222.589844 222.242188 221.824219 222.320312 C 221.058594 222.394531 220.289062 222.433594 219.519531 222.433594 Z M 219.519531 177.890625 C 219.113281 177.890625 218.714844 177.933594 218.316406 178.011719 C 217.917969 178.089844 217.53125 178.210938 217.15625 178.363281 C 216.78125 178.519531 216.425781 178.710938 216.085938 178.9375 C 215.75 179.164062 215.4375 179.417969 215.152344 179.707031 C 214.863281 179.992188 214.605469 180.304688 214.382812 180.644531 C 214.15625 180.980469 213.964844 181.335938 213.808594 181.710938 C 213.65625 182.085938 213.539062 182.472656 213.457031 182.871094 C 213.378906 183.269531 213.339844 183.671875 213.339844 184.078125 L 213.339844 198.925781 C 213.335938 199.332031 213.375 199.738281 213.453125 200.136719 C 213.53125 200.535156 213.648438 200.925781 213.800781 201.300781 C 213.957031 201.679688 214.148438 202.035156 214.371094 202.375 C 214.597656 202.714844 214.855469 203.027344 215.140625 203.316406 C 215.429688 203.605469 215.742188 203.863281 216.082031 204.089844 C 216.417969 204.316406 216.777344 204.507812 217.152344 204.664062 C 217.527344 204.820312 217.917969 204.9375 218.316406 205.019531 C 218.714844 205.097656 219.117188 205.136719 219.527344 205.136719 C 219.933594 205.136719 220.335938 205.097656 220.734375 205.019531 C 221.136719 204.9375 221.523438 204.820312 221.898438 204.664062 C 222.273438 204.507812 222.632812 204.316406 222.96875 204.089844 C 223.308594 203.863281 223.621094 203.605469 223.910156 203.316406 C 224.195312 203.027344 224.453125 202.714844 224.679688 202.375 C 224.902344 202.035156 225.09375 201.679688 225.25 201.300781 C 225.402344 200.925781 225.519531 200.535156 225.597656 200.136719 C 225.675781 199.738281 225.714844 199.332031 225.710938 198.925781 L 225.710938 184.078125 C 225.710938 183.671875 225.671875 183.269531 225.59375 182.871094 C 225.511719 182.472656 225.394531 182.085938 225.238281 181.710938 C 225.082031 181.335938 224.894531 180.980469 224.667969 180.640625 C 224.441406 180.304688 224.183594 179.992188 223.898438 179.703125 C 223.609375 179.417969 223.296875 179.160156 222.957031 178.933594 C 222.621094 178.710938 222.265625 178.519531 221.890625 178.363281 C 221.515625 178.207031 221.125 178.089844 220.726562 178.011719 C 220.328125 177.929688 219.925781 177.890625 219.519531 177.890625 Z M 219.519531 177.890625 " clip-rule="nonzero"/></clipPath><linearGradient x1="24.571412" gradientTransform="matrix(8.660714, 0, 0, 8.660714, -20.500699, -20.06567)" y1="27.571586" x2="30.860127" gradientUnits="userSpaceOnUse" y2="21.282871" id="51c0edb211"><stop stop-opacity="1" stop-color="rgb(22.071838%, 62.103271%, 69.104004%)" offset="0"/><stop stop-opacity="1" stop-color="rgb(22.027588%, 62.277222%, 69.042969%)" offset="0.0625"/><stop stop-opacity="1" stop-color="rgb(21.955872%, 62.554932%, 68.948364%)" offset="0.09375"/><stop stop-opacity="1" stop-color="rgb(21.899414%, 62.760925%, 68.882751%)" offset="0.125"/><stop stop-opacity="1" stop-color="rgb(21.842957%, 62.966919%, 68.817139%)" offset="0.15625"/><stop stop-opacity="1" stop-color="rgb(21.786499%, 63.172913%, 68.751526%)" offset="0.1875"/><stop stop-opacity="1" stop-color="rgb(21.730042%, 63.378906%, 68.685913%)" offset="0.21875"/><stop stop-opacity="1" stop-color="rgb(21.67511%, 63.5849%, 68.618774%)" offset="0.25"/><stop stop-opacity="1" stop-color="rgb(21.618652%, 63.790894%, 68.553162%)" offset="0.28125"/><stop stop-opacity="1" stop-color="rgb(21.562195%, 63.996887%, 68.487549%)" offset="0.3125"/><stop stop-opacity="1" stop-color="rgb(21.505737%, 64.202881%, 68.421936%)" offset="0.34375"/><stop stop-opacity="1" stop-color="rgb(21.44928%, 64.408875%, 68.356323%)" offset="0.375"/><stop stop-opacity="1" stop-color="rgb(21.392822%, 64.614868%, 68.289185%)" offset="0.40625"/><stop stop-opacity="1" stop-color="rgb(21.336365%, 64.822388%, 68.223572%)" offset="0.431651"/><stop stop-opacity="1" stop-color="rgb(21.308899%, 64.926147%, 68.191528%)" offset="0.4375"/><stop stop-opacity="1" stop-color="rgb(21.279907%, 65.028381%, 68.157959%)" offset="0.46875"/><stop stop-opacity="1" stop-color="rgb(21.22345%, 65.234375%, 68.092346%)" offset="0.5"/><stop stop-opacity="1" stop-color="rgb(21.166992%, 65.440369%, 68.026733%)" offset="0.53125"/><stop stop-opacity="1" stop-color="rgb(21.110535%, 65.646362%, 67.959595%)" offset="0.5625"/><stop stop-opacity="1" stop-color="rgb(21.054077%, 65.852356%, 67.893982%)" offset="0.568349"/><stop stop-opacity="1" stop-color="rgb(21.026611%, 65.956116%, 67.861938%)" offset="0.59375"/><stop stop-opacity="1" stop-color="rgb(20.999146%, 66.05835%, 67.828369%)" offset="0.625"/><stop stop-opacity="1" stop-color="rgb(20.942688%, 66.264343%, 67.762756%)" offset="0.65625"/><stop stop-opacity="1" stop-color="rgb(20.88623%, 66.470337%, 67.697144%)" offset="0.6875"/><stop stop-opacity="1" stop-color="rgb(20.829773%, 66.676331%, 67.630005%)" offset="0.71875"/><stop stop-opacity="1" stop-color="rgb(20.773315%, 66.882324%, 67.564392%)" offset="0.75"/><stop stop-opacity="1" stop-color="rgb(20.716858%, 67.089844%, 67.498779%)" offset="0.78125"/><stop stop-opacity="1" stop-color="rgb(20.6604%, 67.295837%, 67.433167%)" offset="0.8125"/><stop stop-opacity="1" stop-color="rgb(20.603943%, 67.501831%, 67.367554%)" offset="0.84375"/><stop stop-opacity="1" stop-color="rgb(20.547485%, 67.707825%, 67.300415%)" offset="0.875"/><stop stop-opacity="1" stop-color="rgb(20.491028%, 67.913818%, 67.234802%)" offset="0.90625"/><stop stop-opacity="1" stop-color="rgb(20.43457%, 68.119812%, 67.169189%)" offset="0.9375"/><stop stop-opacity="1" stop-color="rgb(20.378113%, 68.325806%, 67.103577%)" offset="0.96875"/><stop stop-opacity="1" stop-color="rgb(20.323181%, 68.531799%, 67.037964%)" offset="1"/></linearGradient><clipPath id="72376d4bd0"><path d="M 270 205 L 318 205 L 318 267 L 270 267 Z M 270 205 " clip-rule="nonzero"/></clipPath><clipPath id="8c0dcbcce8"><path d="M 293.761719 266.976562 C 292.992188 266.976562 292.226562 266.9375 291.460938 266.863281 C 290.695312 266.785156 289.933594 266.671875 289.179688 266.519531 C 288.421875 266.371094 287.675781 266.183594 286.941406 265.960938 C 286.203125 265.734375 285.480469 265.476562 284.769531 265.179688 C 284.058594 264.886719 283.363281 264.558594 282.683594 264.195312 C 282.007812 263.832031 281.347656 263.433594 280.707031 263.007812 C 280.066406 262.578125 279.449219 262.121094 278.855469 261.632812 C 278.261719 261.144531 277.691406 260.628906 277.144531 260.085938 C 276.601562 259.539062 276.085938 258.972656 275.597656 258.375 C 275.109375 257.78125 274.648438 257.164062 274.222656 256.523438 C 273.792969 255.882812 273.398438 255.222656 273.035156 254.546875 C 272.671875 253.867188 272.34375 253.171875 272.046875 252.460938 C 271.753906 251.75 271.492188 251.027344 271.269531 250.289062 C 271.046875 249.554688 270.859375 248.808594 270.707031 248.054688 C 270.554688 247.296875 270.441406 246.539062 270.367188 245.773438 C 270.289062 245.007812 270.25 244.238281 270.25 243.46875 L 270.25 228.621094 C 270.25 227.851562 270.285156 227.082031 270.359375 226.3125 C 270.433594 225.546875 270.546875 224.785156 270.695312 224.027344 C 270.84375 223.273438 271.03125 222.523438 271.253906 221.785156 C 271.476562 221.050781 271.734375 220.324219 272.027344 219.609375 C 272.320312 218.898438 272.648438 218.203125 273.011719 217.519531 C 273.375 216.839844 273.769531 216.179688 274.195312 215.539062 C 274.625 214.898438 275.082031 214.277344 275.570312 213.683594 C 276.058594 213.085938 276.574219 212.515625 277.121094 211.96875 C 277.664062 211.421875 278.234375 210.90625 278.828125 210.414062 C 279.425781 209.925781 280.042969 209.46875 280.683594 209.039062 C 281.324219 208.609375 281.984375 208.214844 282.664062 207.847656 C 283.34375 207.484375 284.039062 207.15625 284.753906 206.859375 C 285.464844 206.566406 286.1875 206.304688 286.925781 206.082031 C 287.664062 205.859375 288.410156 205.671875 289.167969 205.519531 C 289.921875 205.371094 290.683594 205.257812 291.453125 205.179688 C 292.21875 205.105469 292.988281 205.066406 293.757812 205.066406 C 294.53125 205.066406 295.296875 205.105469 296.066406 205.179688 C 296.832031 205.257812 297.59375 205.371094 298.351562 205.519531 C 299.105469 205.671875 299.855469 205.859375 300.589844 206.082031 C 301.328125 206.304688 302.054688 206.566406 302.765625 206.859375 C 303.476562 207.15625 304.171875 207.484375 304.851562 207.847656 C 305.53125 208.214844 306.191406 208.609375 306.832031 209.039062 C 307.472656 209.46875 308.09375 209.925781 308.6875 210.414062 C 309.285156 210.90625 309.851562 211.421875 310.398438 211.96875 C 310.941406 212.515625 311.460938 213.085938 311.949219 213.683594 C 312.4375 214.277344 312.894531 214.898438 313.320312 215.539062 C 313.75 216.179688 314.144531 216.839844 314.507812 217.519531 C 314.867188 218.203125 315.195312 218.898438 315.492188 219.609375 C 315.785156 220.324219 316.042969 221.050781 316.265625 221.785156 C 316.488281 222.523438 316.675781 223.273438 316.824219 224.027344 C 316.972656 224.785156 317.085938 225.546875 317.15625 226.3125 C 317.230469 227.082031 317.269531 227.851562 317.265625 228.621094 L 317.265625 243.46875 C 317.265625 244.238281 317.226562 245.007812 317.152344 245.773438 C 317.074219 246.539062 316.960938 247.296875 316.8125 248.050781 C 316.660156 248.808594 316.472656 249.550781 316.25 250.289062 C 316.023438 251.023438 315.765625 251.75 315.472656 252.460938 C 315.175781 253.171875 314.847656 253.867188 314.484375 254.542969 C 314.121094 255.222656 313.726562 255.882812 313.296875 256.523438 C 312.871094 257.160156 312.414062 257.777344 311.925781 258.375 C 311.4375 258.96875 310.917969 259.539062 310.375 260.082031 C 309.832031 260.625 309.261719 261.144531 308.667969 261.632812 C 308.070312 262.121094 307.453125 262.578125 306.816406 263.003906 C 306.175781 263.433594 305.515625 263.828125 304.835938 264.191406 C 304.160156 264.554688 303.464844 264.882812 302.753906 265.179688 C 302.042969 265.472656 301.320312 265.734375 300.582031 265.957031 C 299.847656 266.183594 299.101562 266.371094 298.347656 266.519531 C 297.59375 266.671875 296.832031 266.785156 296.066406 266.859375 C 295.300781 266.9375 294.53125 266.976562 293.761719 266.976562 Z M 293.761719 222.433594 C 293.355469 222.433594 292.953125 222.472656 292.554688 222.554688 C 292.15625 222.632812 291.769531 222.75 291.394531 222.90625 C 291.019531 223.0625 290.664062 223.25 290.324219 223.476562 C 289.988281 223.703125 289.675781 223.960938 289.386719 224.246094 C 289.101562 224.535156 288.84375 224.847656 288.617188 225.183594 C 288.390625 225.523438 288.199219 225.878906 288.046875 226.253906 C 287.890625 226.628906 287.773438 227.015625 287.691406 227.414062 C 287.613281 227.8125 287.574219 228.214844 287.570312 228.621094 L 287.570312 243.46875 C 287.570312 243.875 287.609375 244.28125 287.6875 244.679688 C 287.765625 245.078125 287.882812 245.46875 288.035156 245.84375 C 288.191406 246.21875 288.382812 246.578125 288.605469 246.917969 C 288.832031 247.257812 289.089844 247.570312 289.375 247.859375 C 289.664062 248.148438 289.976562 248.40625 290.3125 248.632812 C 290.652344 248.859375 291.007812 249.050781 291.386719 249.207031 C 291.761719 249.363281 292.148438 249.480469 292.550781 249.558594 C 292.949219 249.640625 293.351562 249.679688 293.757812 249.679688 C 294.167969 249.679688 294.570312 249.640625 294.96875 249.558594 C 295.367188 249.480469 295.757812 249.363281 296.132812 249.207031 C 296.507812 249.050781 296.867188 248.859375 297.203125 248.632812 C 297.542969 248.40625 297.855469 248.148438 298.140625 247.859375 C 298.429688 247.570312 298.6875 247.257812 298.910156 246.917969 C 299.136719 246.578125 299.328125 246.21875 299.480469 245.84375 C 299.636719 245.46875 299.753906 245.078125 299.832031 244.679688 C 299.910156 244.28125 299.949219 243.875 299.945312 243.46875 L 299.945312 228.621094 C 299.945312 228.214844 299.90625 227.8125 299.828125 227.414062 C 299.746094 227.015625 299.628906 226.628906 299.472656 226.253906 C 299.320312 225.878906 299.128906 225.523438 298.902344 225.1875 C 298.675781 224.847656 298.421875 224.535156 298.132812 224.25 C 297.847656 223.960938 297.535156 223.707031 297.199219 223.480469 C 296.859375 223.253906 296.503906 223.0625 296.128906 222.90625 C 295.753906 222.753906 295.367188 222.632812 294.96875 222.554688 C 294.570312 222.476562 294.167969 222.433594 293.761719 222.433594 Z M 293.761719 222.433594 " clip-rule="nonzero"/></clipPath><linearGradient x1="33.142524" gradientTransform="matrix(8.660714, 0, 0, 8.660714, -20.500699, -20.06567)" y1="32.714477" x2="39.431238" gradientUnits="userSpaceOnUse" y2="26.425763" id="69e06db082"><stop stop-opacity="1" stop-color="rgb(21.606445%, 63.838196%, 68.539429%)" offset="0"/><stop stop-opacity="1" stop-color="rgb(21.577454%, 63.94043%, 68.505859%)" offset="0.03125"/><stop stop-opacity="1" stop-color="rgb(21.520996%, 64.146423%, 68.440247%)" offset="0.0625"/><stop stop-opacity="1" stop-color="rgb(21.464539%, 64.352417%, 68.374634%)" offset="0.09375"/><stop stop-opacity="1" stop-color="rgb(21.408081%, 64.558411%, 68.307495%)" offset="0.125"/><stop stop-opacity="1" stop-color="rgb(21.351624%, 64.764404%, 68.241882%)" offset="0.15625"/><stop stop-opacity="1" stop-color="rgb(21.295166%, 64.970398%, 68.17627%)" offset="0.1875"/><stop stop-opacity="1" stop-color="rgb(21.238708%, 65.176392%, 68.110657%)" offset="0.21875"/><stop stop-opacity="1" stop-color="rgb(21.183777%, 65.382385%, 68.045044%)" offset="0.25"/><stop stop-opacity="1" stop-color="rgb(21.127319%, 65.588379%, 67.977905%)" offset="0.28125"/><stop stop-opacity="1" stop-color="rgb(21.070862%, 65.794373%, 67.912292%)" offset="0.3125"/><stop stop-opacity="1" stop-color="rgb(21.014404%, 66.001892%, 67.84668%)" offset="0.34375"/><stop stop-opacity="1" stop-color="rgb(20.957947%, 66.207886%, 67.781067%)" offset="0.375"/><stop stop-opacity="1" stop-color="rgb(20.901489%, 66.413879%, 67.715454%)" offset="0.40625"/><stop stop-opacity="1" stop-color="rgb(20.845032%, 66.619873%, 67.648315%)" offset="0.431651"/><stop stop-opacity="1" stop-color="rgb(20.817566%, 66.723633%, 67.616272%)" offset="0.4375"/><stop stop-opacity="1" stop-color="rgb(20.788574%, 66.825867%, 67.582703%)" offset="0.46875"/><stop stop-opacity="1" stop-color="rgb(20.732117%, 67.03186%, 67.51709%)" offset="0.5"/><stop stop-opacity="1" stop-color="rgb(20.675659%, 67.237854%, 67.451477%)" offset="0.53125"/><stop stop-opacity="1" stop-color="rgb(20.619202%, 67.443848%, 67.385864%)" offset="0.5625"/><stop stop-opacity="1" stop-color="rgb(20.562744%, 67.649841%, 67.318726%)" offset="0.568349"/><stop stop-opacity="1" stop-color="rgb(20.535278%, 67.753601%, 67.286682%)" offset="0.59375"/><stop stop-opacity="1" stop-color="rgb(20.507812%, 67.855835%, 67.253113%)" offset="0.625"/><stop stop-opacity="1" stop-color="rgb(20.451355%, 68.061829%, 67.1875%)" offset="0.65625"/><stop stop-opacity="1" stop-color="rgb(20.394897%, 68.269348%, 67.121887%)" offset="0.6875"/><stop stop-opacity="1" stop-color="rgb(20.33844%, 68.475342%, 67.056274%)" offset="0.71875"/><stop stop-opacity="1" stop-color="rgb(20.281982%, 68.681335%, 66.989136%)" offset="0.75"/><stop stop-opacity="1" stop-color="rgb(20.225525%, 68.887329%, 66.923523%)" offset="0.78125"/><stop stop-opacity="1" stop-color="rgb(20.169067%, 69.093323%, 66.85791%)" offset="0.8125"/><stop stop-opacity="1" stop-color="rgb(20.11261%, 69.299316%, 66.792297%)" offset="0.84375"/><stop stop-opacity="1" stop-color="rgb(20.056152%, 69.50531%, 66.726685%)" offset="0.875"/><stop stop-opacity="1" stop-color="rgb(19.999695%, 69.711304%, 66.659546%)" offset="0.90625"/><stop stop-opacity="1" stop-color="rgb(19.943237%, 69.917297%, 66.593933%)" offset="0.9375"/><stop stop-opacity="1" stop-color="rgb(19.888306%, 70.123291%, 66.52832%)" offset="0.96875"/><stop stop-opacity="1" stop-color="rgb(19.831848%, 70.329285%, 66.462708%)" offset="1"/></linearGradient><clipPath id="445d850b0c"><path d="M 223 160 L 290 160 L 290 267 L 223 267 Z M 223 160 " clip-rule="nonzero"/></clipPath><clipPath id="9ce79d973e"><path d="M 232.570312 266.976562 C 232.199219 266.976562 231.828125 266.953125 231.457031 266.90625 C 231.085938 266.855469 230.722656 266.785156 230.359375 266.6875 C 230 266.59375 229.648438 266.476562 229.300781 266.332031 C 228.957031 266.191406 228.621094 266.03125 228.296875 265.84375 C 227.972656 265.660156 227.660156 265.457031 227.363281 265.230469 C 227.066406 265.007812 226.78125 264.765625 226.515625 264.503906 C 226.25 264.242188 226 263.964844 225.769531 263.671875 C 225.539062 263.378906 225.328125 263.070312 225.136719 262.75 C 224.945312 262.429688 224.777344 262.097656 224.628906 261.757812 C 224.480469 261.414062 224.355469 261.0625 224.253906 260.703125 C 224.148438 260.34375 224.070312 259.980469 224.015625 259.613281 C 223.960938 259.242188 223.925781 258.871094 223.917969 258.5 C 223.910156 258.125 223.929688 257.753906 223.96875 257.382812 C 224.007812 257.011719 224.074219 256.644531 224.160156 256.28125 C 224.25 255.921875 224.359375 255.566406 224.492188 255.214844 C 224.625 254.867188 224.78125 254.53125 224.960938 254.203125 L 273.082031 165.117188 C 273.351562 164.609375 273.664062 164.136719 274.027344 163.691406 C 274.386719 163.246094 274.789062 162.84375 275.230469 162.480469 C 275.671875 162.113281 276.144531 161.796875 276.648438 161.527344 C 277.152344 161.253906 277.675781 161.039062 278.226562 160.871094 C 278.773438 160.703125 279.332031 160.59375 279.902344 160.539062 C 280.46875 160.480469 281.039062 160.480469 281.609375 160.539062 C 282.179688 160.597656 282.734375 160.707031 283.285156 160.875 C 283.832031 161.042969 284.355469 161.265625 284.859375 161.535156 C 285.363281 161.808594 285.835938 162.125 286.273438 162.492188 C 286.714844 162.859375 287.117188 163.261719 287.476562 163.707031 C 287.835938 164.152344 288.148438 164.628906 288.414062 165.132812 C 288.679688 165.640625 288.894531 166.167969 289.054688 166.71875 C 289.214844 167.265625 289.320312 167.828125 289.371094 168.398438 C 289.421875 168.96875 289.414062 169.535156 289.351562 170.105469 C 289.289062 170.671875 289.171875 171.230469 289 171.777344 C 288.828125 172.320312 288.601562 172.84375 288.324219 173.34375 L 240.199219 262.429688 C 239.828125 263.117188 239.371094 263.746094 238.832031 264.308594 C 238.292969 264.875 237.683594 265.355469 237.011719 265.757812 C 236.339844 266.15625 235.628906 266.460938 234.875 266.667969 C 234.121094 266.875 233.351562 266.976562 232.570312 266.976562 Z M 232.570312 266.976562 " clip-rule="nonzero"/></clipPath><linearGradient x1="27.038833" gradientTransform="matrix(8.660714, 0, 0, 8.660714, -20.500699, -20.06567)" y1="31.961167" x2="36.969089" gradientUnits="userSpaceOnUse" y2="22.030911" id="497ce5a904"><stop stop-opacity="1" stop-color="rgb(22.276306%, 61.273193%, 69.398499%)" offset="0"/><stop stop-opacity="1" stop-color="rgb(22.242737%, 61.407471%, 69.351196%)" offset="0.03125"/><stop stop-opacity="1" stop-color="rgb(22.175598%, 61.6745%, 69.255066%)" offset="0.0625"/><stop stop-opacity="1" stop-color="rgb(22.109985%, 61.943054%, 69.160461%)" offset="0.09375"/><stop stop-opacity="1" stop-color="rgb(22.044373%, 62.211609%, 69.065857%)" offset="0.125"/><stop stop-opacity="1" stop-color="rgb(21.969604%, 62.503052%, 68.966675%)" offset="0.15625"/><stop stop-opacity="1" stop-color="rgb(21.884155%, 62.82196%, 68.864441%)" offset="0.1875"/><stop stop-opacity="1" stop-color="rgb(21.794128%, 63.146973%, 68.759155%)" offset="0.21875"/><stop stop-opacity="1" stop-color="rgb(21.705627%, 63.471985%, 68.655396%)" offset="0.25"/><stop stop-opacity="1" stop-color="rgb(21.617126%, 63.798523%, 68.551636%)" offset="0.28125"/><stop stop-opacity="1" stop-color="rgb(21.5271%, 64.123535%, 68.447876%)" offset="0.3125"/><stop stop-opacity="1" stop-color="rgb(21.438599%, 64.448547%, 68.344116%)" offset="0.34375"/><stop stop-opacity="1" stop-color="rgb(21.350098%, 64.775085%, 68.238831%)" offset="0.375"/><stop stop-opacity="1" stop-color="rgb(21.260071%, 65.100098%, 68.135071%)" offset="0.380858"/><stop stop-opacity="1" stop-color="rgb(21.21582%, 65.263367%, 68.083191%)" offset="0.40625"/><stop stop-opacity="1" stop-color="rgb(21.17157%, 65.42511%, 68.031311%)" offset="0.4375"/><stop stop-opacity="1" stop-color="rgb(21.083069%, 65.751648%, 67.927551%)" offset="0.46875"/><stop stop-opacity="1" stop-color="rgb(20.994568%, 66.07666%, 67.822266%)" offset="0.5"/><stop stop-opacity="1" stop-color="rgb(20.904541%, 66.401672%, 67.718506%)" offset="0.53125"/><stop stop-opacity="1" stop-color="rgb(20.81604%, 66.72821%, 67.614746%)" offset="0.5625"/><stop stop-opacity="1" stop-color="rgb(20.727539%, 67.053223%, 67.510986%)" offset="0.59375"/><stop stop-opacity="1" stop-color="rgb(20.637512%, 67.378235%, 67.407227%)" offset="0.619142"/><stop stop-opacity="1" stop-color="rgb(20.593262%, 67.541504%, 67.355347%)" offset="0.625"/><stop stop-opacity="1" stop-color="rgb(20.549011%, 67.704773%, 67.301941%)" offset="0.65625"/><stop stop-opacity="1" stop-color="rgb(20.46051%, 68.029785%, 67.198181%)" offset="0.6875"/><stop stop-opacity="1" stop-color="rgb(20.372009%, 68.354797%, 67.094421%)" offset="0.71875"/><stop stop-opacity="1" stop-color="rgb(20.281982%, 68.681335%, 66.990662%)" offset="0.75"/><stop stop-opacity="1" stop-color="rgb(20.193481%, 69.006348%, 66.886902%)" offset="0.78125"/><stop stop-opacity="1" stop-color="rgb(20.10498%, 69.33136%, 66.781616%)" offset="0.8125"/><stop stop-opacity="1" stop-color="rgb(20.014954%, 69.656372%, 66.677856%)" offset="0.84375"/><stop stop-opacity="1" stop-color="rgb(19.926453%, 69.98291%, 66.574097%)" offset="0.875"/><stop stop-opacity="1" stop-color="rgb(19.837952%, 70.307922%, 66.470337%)" offset="0.90625"/><stop stop-opacity="1" stop-color="rgb(19.749451%, 70.632935%, 66.366577%)" offset="0.9375"/><stop stop-opacity="1" stop-color="rgb(19.659424%, 70.959473%, 66.261292%)" offset="0.96875"/><stop stop-opacity="1" stop-color="rgb(19.570923%, 71.284485%, 66.157532%)" offset="1"/></linearGradient><clipPath id="cba2a6bf2e"><path d="M 144 101 L 369.230469 101 L 369.230469 327 L 144 327 Z M 144 101 " clip-rule="nonzero"/></clipPath><clipPath id="e403827500"><path d="M 256.640625 326.363281 C 254.800781 326.363281 252.957031 326.316406 251.117188 326.226562 C 249.277344 326.136719 247.441406 326 245.605469 325.820312 C 243.773438 325.640625 241.945312 325.414062 240.121094 325.144531 C 238.300781 324.875 236.484375 324.558594 234.675781 324.199219 C 232.871094 323.839844 231.074219 323.4375 229.285156 322.988281 C 227.496094 322.539062 225.722656 322.050781 223.960938 321.515625 C 222.195312 320.980469 220.445312 320.402344 218.710938 319.78125 C 216.976562 319.160156 215.257812 318.496094 213.554688 317.792969 C 211.855469 317.085938 210.167969 316.339844 208.503906 315.554688 C 206.839844 314.765625 205.191406 313.9375 203.566406 313.070312 C 201.941406 312.199219 200.339844 311.292969 198.757812 310.34375 C 197.179688 309.398438 195.621094 308.410156 194.089844 307.386719 C 192.558594 306.363281 191.054688 305.304688 189.574219 304.207031 C 188.09375 303.109375 186.640625 301.976562 185.214844 300.804688 C 183.792969 299.636719 182.398438 298.433594 181.03125 297.195312 C 179.667969 295.960938 178.332031 294.6875 177.03125 293.386719 C 175.726562 292.082031 174.457031 290.75 173.21875 289.382812 C 171.980469 288.019531 170.777344 286.625 169.609375 285.199219 C 168.441406 283.773438 167.308594 282.324219 166.210938 280.84375 C 165.113281 279.363281 164.050781 277.855469 163.027344 276.324219 C 162.003906 274.792969 161.019531 273.238281 160.070312 271.65625 C 159.125 270.074219 158.214844 268.472656 157.347656 266.847656 C 156.480469 265.222656 155.652344 263.578125 154.863281 261.910156 C 154.074219 260.246094 153.328125 258.5625 152.625 256.859375 C 151.917969 255.15625 151.253906 253.4375 150.632812 251.703125 C 150.011719 249.96875 149.4375 248.21875 148.902344 246.457031 C 148.367188 244.691406 147.875 242.917969 147.425781 241.128906 C 146.980469 239.34375 146.574219 237.546875 146.214844 235.738281 C 145.855469 233.929688 145.542969 232.117188 145.269531 230.292969 C 145 228.472656 144.777344 226.644531 144.59375 224.808594 C 144.414062 222.976562 144.277344 221.136719 144.1875 219.296875 C 144.097656 217.457031 144.054688 215.617188 144.054688 213.773438 C 144.054688 211.929688 144.097656 210.089844 144.1875 208.25 C 144.277344 206.410156 144.414062 204.570312 144.59375 202.738281 C 144.777344 200.902344 145 199.074219 145.269531 197.253906 C 145.542969 195.429688 145.855469 193.617188 146.214844 191.808594 C 146.574219 190 146.980469 188.203125 147.425781 186.417969 C 147.875 184.628906 148.367188 182.855469 148.902344 181.089844 C 149.4375 179.328125 150.011719 177.578125 150.632812 175.84375 C 151.253906 174.109375 151.917969 172.390625 152.625 170.6875 C 153.328125 168.984375 154.074219 167.300781 154.863281 165.636719 C 155.652344 163.96875 156.480469 162.324219 157.347656 160.699219 C 158.214844 159.074219 159.125 157.472656 160.070312 155.890625 C 161.019531 154.3125 162.003906 152.753906 163.027344 151.222656 C 164.050781 149.691406 165.113281 148.183594 166.210938 146.703125 C 167.308594 145.222656 168.441406 143.773438 169.609375 142.347656 C 170.777344 140.921875 171.980469 139.527344 173.21875 138.164062 C 174.457031 136.796875 175.726562 135.464844 177.03125 134.160156 C 178.332031 132.859375 179.667969 131.585938 181.03125 130.351562 C 182.398438 129.113281 183.792969 127.910156 185.214844 126.742188 C 186.640625 125.570312 188.09375 124.4375 189.574219 123.339844 C 191.054688 122.242188 192.558594 121.183594 194.089844 120.160156 C 195.621094 119.136719 197.179688 118.148438 198.757812 117.203125 C 200.339844 116.253906 201.941406 115.347656 203.566406 114.480469 C 205.191406 113.609375 206.839844 112.78125 208.503906 111.992188 C 210.167969 111.207031 211.855469 110.460938 213.554688 109.753906 C 215.257812 109.050781 216.976562 108.386719 218.710938 107.765625 C 220.445312 107.144531 222.195312 106.566406 223.960938 106.03125 C 225.722656 105.496094 227.496094 105.007812 229.285156 104.558594 C 231.074219 104.109375 232.871094 103.707031 234.675781 103.347656 C 236.484375 102.988281 238.300781 102.671875 240.121094 102.402344 C 241.945312 102.132812 243.773438 101.90625 245.605469 101.726562 C 247.441406 101.546875 249.277344 101.410156 251.117188 101.320312 C 252.957031 101.230469 254.800781 101.183594 256.640625 101.183594 C 258.484375 101.183594 260.328125 101.230469 262.167969 101.320312 C 264.007812 101.410156 265.84375 101.546875 267.679688 101.726562 C 269.511719 101.90625 271.339844 102.132812 273.164062 102.402344 C 274.984375 102.671875 276.800781 102.988281 278.605469 103.347656 C 280.414062 103.707031 282.210938 104.109375 284 104.558594 C 285.785156 105.007812 287.5625 105.496094 289.324219 106.03125 C 291.089844 106.566406 292.835938 107.144531 294.574219 107.765625 C 296.308594 108.386719 298.027344 109.050781 299.726562 109.753906 C 301.429688 110.460938 303.113281 111.207031 304.78125 111.992188 C 306.445312 112.78125 308.089844 113.609375 309.714844 114.480469 C 311.339844 115.347656 312.945312 116.253906 314.523438 117.203125 C 316.105469 118.148438 317.660156 119.136719 319.195312 120.160156 C 320.726562 121.183594 322.230469 122.242188 323.710938 123.339844 C 325.191406 124.4375 326.644531 125.570312 328.066406 126.742188 C 329.492188 127.910156 330.886719 129.113281 332.253906 130.351562 C 333.617188 131.585938 334.953125 132.859375 336.253906 134.160156 C 337.558594 135.464844 338.828125 136.796875 340.066406 138.164062 C 341.300781 139.527344 342.503906 140.921875 343.675781 142.347656 C 344.84375 143.773438 345.976562 145.222656 347.074219 146.703125 C 348.171875 148.183594 349.234375 149.691406 350.257812 151.222656 C 351.28125 152.753906 352.265625 154.3125 353.214844 155.890625 C 354.160156 157.472656 355.070312 159.074219 355.9375 160.699219 C 356.804688 162.324219 357.632812 163.96875 358.421875 165.636719 C 359.210938 167.300781 359.957031 168.984375 360.660156 170.6875 C 361.367188 172.390625 362.027344 174.109375 362.648438 175.84375 C 363.269531 177.578125 363.847656 179.328125 364.382812 181.089844 C 364.917969 182.855469 365.410156 184.628906 365.855469 186.417969 C 366.304688 188.203125 366.707031 190 367.066406 191.808594 C 367.425781 193.617188 367.742188 195.429688 368.011719 197.253906 C 368.28125 199.074219 368.507812 200.902344 368.6875 202.738281 C 368.871094 204.570312 369.003906 206.410156 369.097656 208.25 C 369.1875 210.089844 369.230469 211.929688 369.230469 213.773438 C 369.230469 215.617188 369.183594 217.457031 369.089844 219.296875 C 368.996094 221.136719 368.859375 222.972656 368.679688 224.804688 C 368.496094 226.636719 368.269531 228.464844 367.996094 230.289062 C 367.722656 232.109375 367.40625 233.921875 367.046875 235.730469 C 366.6875 237.535156 366.28125 239.332031 365.832031 241.117188 C 365.382812 242.90625 364.890625 244.679688 364.355469 246.441406 C 363.820312 248.203125 363.238281 249.953125 362.617188 251.6875 C 361.996094 253.421875 361.332031 255.136719 360.628906 256.839844 C 359.921875 258.542969 359.175781 260.222656 358.386719 261.890625 C 357.597656 263.554688 356.769531 265.199219 355.898438 266.824219 C 355.03125 268.445312 354.121094 270.046875 353.175781 271.628906 C 352.226562 273.207031 351.242188 274.761719 350.21875 276.292969 C 349.195312 277.824219 348.132812 279.332031 347.035156 280.8125 C 345.9375 282.289062 344.804688 283.742188 343.636719 285.164062 C 342.46875 286.589844 341.265625 287.984375 340.027344 289.347656 C 338.789062 290.710938 337.519531 292.046875 336.21875 293.347656 C 334.914062 294.652344 333.582031 295.921875 332.214844 297.160156 C 330.851562 298.394531 329.457031 299.597656 328.035156 300.765625 C 326.609375 301.9375 325.160156 303.070312 323.679688 304.167969 C 322.199219 305.265625 320.695312 306.324219 319.164062 307.347656 C 317.632812 308.371094 316.078125 309.359375 314.496094 310.304688 C 312.917969 311.253906 311.316406 312.160156 309.691406 313.03125 C 308.066406 313.898438 306.421875 314.730469 304.757812 315.515625 C 303.09375 316.304688 301.410156 317.050781 299.707031 317.757812 C 298.007812 318.464844 296.289062 319.128906 294.554688 319.75 C 292.820312 320.371094 291.074219 320.949219 289.3125 321.484375 C 287.546875 322.023438 285.773438 322.515625 283.988281 322.964844 C 282.199219 323.414062 280.40625 323.816406 278.597656 324.179688 C 276.792969 324.539062 274.976562 324.855469 273.15625 325.128906 C 271.335938 325.398438 269.507812 325.625 267.675781 325.808594 C 265.839844 325.992188 264.003906 326.128906 262.164062 326.222656 C 260.324219 326.3125 258.484375 326.359375 256.640625 326.363281 Z M 256.640625 118.503906 C 255.082031 118.503906 253.523438 118.542969 251.96875 118.621094 C 250.410156 118.695312 248.855469 118.8125 247.304688 118.964844 C 245.753906 119.117188 244.207031 119.308594 242.664062 119.535156 C 241.121094 119.765625 239.585938 120.03125 238.054688 120.335938 C 236.527344 120.640625 235.007812 120.980469 233.492188 121.359375 C 231.980469 121.738281 230.480469 122.15625 228.988281 122.609375 C 227.496094 123.058594 226.015625 123.550781 224.546875 124.074219 C 223.078125 124.601562 221.625 125.160156 220.183594 125.757812 C 218.746094 126.355469 217.320312 126.984375 215.910156 127.652344 C 214.5 128.320312 213.109375 129.019531 211.734375 129.753906 C 210.359375 130.488281 209.003906 131.257812 207.664062 132.058594 C 206.328125 132.859375 205.011719 133.695312 203.714844 134.5625 C 202.417969 135.425781 201.144531 136.324219 199.890625 137.253906 C 198.640625 138.183594 197.410156 139.140625 196.203125 140.128906 C 195 141.121094 193.820312 142.136719 192.664062 143.183594 C 191.507812 144.230469 190.378906 145.304688 189.277344 146.410156 C 188.175781 147.511719 187.101562 148.640625 186.054688 149.796875 C 185.007812 150.949219 183.988281 152.132812 183 153.335938 C 182.011719 154.542969 181.050781 155.769531 180.121094 157.023438 C 179.195312 158.273438 178.296875 159.550781 177.429688 160.84375 C 176.5625 162.140625 175.730469 163.457031 174.929688 164.796875 C 174.125 166.132812 173.359375 167.488281 172.625 168.863281 C 171.886719 170.238281 171.1875 171.632812 170.519531 173.042969 C 169.855469 174.449219 169.222656 175.875 168.625 177.316406 C 168.03125 178.757812 167.46875 180.210938 166.941406 181.679688 C 166.417969 183.148438 165.929688 184.625 165.476562 186.117188 C 165.023438 187.609375 164.609375 189.113281 164.230469 190.625 C 163.851562 192.136719 163.507812 193.660156 163.203125 195.1875 C 162.902344 196.71875 162.632812 198.253906 162.40625 199.792969 C 162.175781 201.335938 161.984375 202.882812 161.832031 204.4375 C 161.679688 205.988281 161.566406 207.542969 161.488281 209.097656 C 161.414062 210.65625 161.375 212.214844 161.375 213.773438 C 161.375 215.332031 161.414062 216.890625 161.488281 218.449219 C 161.566406 220.003906 161.679688 221.558594 161.832031 223.113281 C 161.984375 224.664062 162.175781 226.210938 162.40625 227.753906 C 162.632812 229.292969 162.902344 230.832031 163.203125 232.359375 C 163.507812 233.886719 163.851562 235.410156 164.230469 236.921875 C 164.609375 238.433594 165.023438 239.9375 165.476562 241.429688 C 165.929688 242.921875 166.417969 244.398438 166.941406 245.867188 C 167.46875 247.335938 168.03125 248.789062 168.625 250.230469 C 169.222656 251.671875 169.855469 253.097656 170.519531 254.503906 C 171.1875 255.914062 171.886719 257.308594 172.625 258.683594 C 173.359375 260.058594 174.125 261.414062 174.929688 262.75 C 175.730469 264.089844 176.5625 265.40625 177.429688 266.703125 C 178.296875 267.996094 179.195312 269.273438 180.121094 270.523438 C 181.050781 271.777344 182.011719 273.003906 183 274.210938 C 183.988281 275.417969 185.007812 276.597656 186.054688 277.75 C 187.101562 278.90625 188.175781 280.035156 189.277344 281.136719 C 190.378906 282.242188 191.507812 283.316406 192.664062 284.363281 C 193.820312 285.410156 195 286.425781 196.203125 287.417969 C 197.410156 288.40625 198.640625 289.363281 199.890625 290.292969 C 201.144531 291.222656 202.417969 292.121094 203.714844 292.984375 C 205.011719 293.851562 206.328125 294.6875 207.664062 295.488281 C 209.003906 296.289062 210.359375 297.058594 211.734375 297.792969 C 213.109375 298.527344 214.5 299.226562 215.910156 299.894531 C 217.320312 300.5625 218.746094 301.191406 220.183594 301.789062 C 221.625 302.386719 223.078125 302.945312 224.546875 303.472656 C 226.015625 303.996094 227.496094 304.488281 228.988281 304.9375 C 230.480469 305.390625 231.980469 305.808594 233.492188 306.1875 C 235.007812 306.566406 236.527344 306.90625 238.054688 307.210938 C 239.585938 307.515625 241.121094 307.78125 242.664062 308.011719 C 244.207031 308.238281 245.753906 308.429688 247.304688 308.582031 C 248.855469 308.734375 250.410156 308.851562 251.96875 308.925781 C 253.523438 309.003906 255.082031 309.042969 256.640625 309.042969 C 258.203125 309.042969 259.757812 309.003906 261.316406 308.925781 C 262.875 308.851562 264.429688 308.734375 265.980469 308.582031 C 267.53125 308.429688 269.078125 308.238281 270.621094 308.011719 C 272.164062 307.78125 273.699219 307.515625 275.226562 307.210938 C 276.757812 306.90625 278.277344 306.566406 279.789062 306.1875 C 281.300781 305.808594 282.804688 305.390625 284.296875 304.9375 C 285.789062 304.488281 287.269531 303.996094 288.738281 303.472656 C 290.203125 302.945312 291.660156 302.386719 293.097656 301.789062 C 294.539062 301.191406 295.964844 300.5625 297.375 299.894531 C 298.785156 299.226562 300.175781 298.527344 301.550781 297.792969 C 302.925781 297.058594 304.28125 296.289062 305.621094 295.488281 C 306.957031 294.6875 308.273438 293.851562 309.570312 292.984375 C 310.867188 292.121094 312.140625 291.222656 313.394531 290.292969 C 314.644531 289.363281 315.875 288.40625 317.078125 287.417969 C 318.285156 286.425781 319.464844 285.410156 320.621094 284.363281 C 321.773438 283.316406 322.902344 282.242188 324.007812 281.136719 C 325.109375 280.035156 326.183594 278.90625 327.230469 277.75 C 328.277344 276.597656 329.296875 275.417969 330.285156 274.210938 C 331.273438 273.003906 332.234375 271.777344 333.160156 270.523438 C 334.089844 269.273438 334.988281 267.996094 335.855469 266.703125 C 336.71875 265.40625 337.554688 264.089844 338.355469 262.75 C 339.15625 261.414062 339.925781 260.058594 340.660156 258.683594 C 341.394531 257.308594 342.097656 255.914062 342.761719 254.503906 C 343.429688 253.097656 344.0625 251.671875 344.65625 250.230469 C 345.253906 248.789062 345.816406 247.335938 346.339844 245.867188 C 346.867188 244.398438 347.355469 242.921875 347.808594 241.429688 C 348.261719 239.9375 348.675781 238.433594 349.054688 236.921875 C 349.433594 235.410156 349.773438 233.886719 350.078125 232.359375 C 350.382812 230.832031 350.648438 229.292969 350.878906 227.753906 C 351.109375 226.210938 351.296875 224.664062 351.453125 223.113281 C 351.605469 221.558594 351.71875 220.003906 351.796875 218.449219 C 351.871094 216.890625 351.910156 215.332031 351.910156 213.773438 C 351.910156 212.214844 351.867188 210.65625 351.789062 209.101562 C 351.710938 207.542969 351.597656 205.988281 351.441406 204.4375 C 351.289062 202.886719 351.09375 201.34375 350.863281 199.800781 C 350.632812 198.257812 350.367188 196.722656 350.0625 195.195312 C 349.757812 193.667969 349.414062 192.148438 349.035156 190.636719 C 348.652344 189.125 348.238281 187.621094 347.785156 186.128906 C 347.332031 184.640625 346.839844 183.160156 346.3125 181.691406 C 345.789062 180.226562 345.226562 178.773438 344.628906 177.332031 C 344.03125 175.894531 343.398438 174.46875 342.734375 173.058594 C 342.066406 171.652344 341.363281 170.261719 340.628906 168.886719 C 339.894531 167.511719 339.125 166.15625 338.324219 164.820312 C 337.523438 163.484375 336.6875 162.167969 335.820312 160.871094 C 334.953125 159.574219 334.058594 158.300781 333.128906 157.050781 C 332.199219 155.796875 331.242188 154.570312 330.253906 153.367188 C 329.261719 152.160156 328.246094 150.980469 327.199219 149.824219 C 326.152344 148.671875 325.078125 147.542969 323.976562 146.441406 C 322.875 145.339844 321.746094 144.265625 320.589844 143.21875 C 319.433594 142.171875 318.253906 141.152344 317.050781 140.164062 C 315.847656 139.175781 314.617188 138.214844 313.367188 137.285156 C 312.113281 136.359375 310.839844 135.460938 309.542969 134.59375 C 308.25 133.726562 306.933594 132.894531 305.597656 132.09375 C 304.257812 131.289062 302.902344 130.523438 301.53125 129.785156 C 300.15625 129.050781 298.765625 128.351562 297.355469 127.683594 C 295.945312 127.015625 294.523438 126.382812 293.082031 125.785156 C 291.644531 125.1875 290.191406 124.628906 288.722656 124.101562 C 287.253906 123.574219 285.777344 123.085938 284.285156 122.632812 C 282.792969 122.179688 281.292969 121.761719 279.78125 121.382812 C 278.269531 121.003906 276.75 120.660156 275.21875 120.355469 C 273.691406 120.046875 272.15625 119.78125 270.617188 119.550781 C 269.074219 119.320312 267.527344 119.128906 265.976562 118.972656 C 264.425781 118.820312 262.871094 118.703125 261.316406 118.625 C 259.757812 118.546875 258.199219 118.507812 256.640625 118.503906 Z M 256.640625 118.503906 " clip-rule="nonzero"/></clipPath><linearGradient x1="18.999999" gradientTransform="matrix(8.660714, 0, 0, 8.660714, -20.500699, -20.06567)" y1="40.000001" x2="44.999999" gradientUnits="userSpaceOnUse" y2="14.000001" id="fc99bb4631"><stop stop-opacity="1" stop-color="rgb(23.980713%, 54.328918%, 71.859741%)" offset="0"/><stop stop-opacity="1" stop-color="rgb(23.936462%, 54.504395%, 71.79718%)" offset="0.015625"/><stop stop-opacity="1" stop-color="rgb(23.851013%, 54.855347%, 71.673584%)" offset="0.03125"/><stop stop-opacity="1" stop-color="rgb(23.764038%, 55.206299%, 71.548462%)" offset="0.046875"/><stop stop-opacity="1" stop-color="rgb(23.678589%, 55.557251%, 71.424866%)" offset="0.0625"/><stop stop-opacity="1" stop-color="rgb(23.591614%, 55.908203%, 71.299744%)" offset="0.078125"/><stop stop-opacity="1" stop-color="rgb(23.506165%, 56.259155%, 71.176147%)" offset="0.09375"/><stop stop-opacity="1" stop-color="rgb(23.419189%, 56.610107%, 71.051025%)" offset="0.109375"/><stop stop-opacity="1" stop-color="rgb(23.33374%, 56.96106%, 70.927429%)" offset="0.125"/><stop stop-opacity="1" stop-color="rgb(23.246765%, 57.312012%, 70.802307%)" offset="0.140625"/><stop stop-opacity="1" stop-color="rgb(23.161316%, 57.662964%, 70.678711%)" offset="0.15625"/><stop stop-opacity="1" stop-color="rgb(23.075867%, 58.013916%, 70.553589%)" offset="0.171875"/><stop stop-opacity="1" stop-color="rgb(22.988892%, 58.364868%, 70.428467%)" offset="0.1875"/><stop stop-opacity="1" stop-color="rgb(22.903442%, 58.71582%, 70.304871%)" offset="0.203125"/><stop stop-opacity="1" stop-color="rgb(22.816467%, 59.066772%, 70.179749%)" offset="0.21875"/><stop stop-opacity="1" stop-color="rgb(22.731018%, 59.417725%, 70.056152%)" offset="0.234375"/><stop stop-opacity="1" stop-color="rgb(22.644043%, 59.768677%, 69.93103%)" offset="0.25"/><stop stop-opacity="1" stop-color="rgb(22.558594%, 60.119629%, 69.807434%)" offset="0.265625"/><stop stop-opacity="1" stop-color="rgb(22.471619%, 60.470581%, 69.682312%)" offset="0.28125"/><stop stop-opacity="1" stop-color="rgb(22.386169%, 60.821533%, 69.558716%)" offset="0.296875"/><stop stop-opacity="1" stop-color="rgb(22.30072%, 61.172485%, 69.433594%)" offset="0.3125"/><stop stop-opacity="1" stop-color="rgb(22.213745%, 61.523438%, 69.309998%)" offset="0.328125"/><stop stop-opacity="1" stop-color="rgb(22.128296%, 61.87439%, 69.184875%)" offset="0.34375"/><stop stop-opacity="1" stop-color="rgb(22.041321%, 62.225342%, 69.061279%)" offset="0.359375"/><stop stop-opacity="1" stop-color="rgb(21.969604%, 62.507629%, 68.963623%)" offset="0.367187"/><stop stop-opacity="1" stop-color="rgb(21.911621%, 62.719727%, 68.896484%)" offset="0.375"/><stop stop-opacity="1" stop-color="rgb(21.853638%, 62.93335%, 68.82782%)" offset="0.382812"/><stop stop-opacity="1" stop-color="rgb(21.795654%, 63.145447%, 68.759155%)" offset="0.390625"/><stop stop-opacity="1" stop-color="rgb(21.736145%, 63.35907%, 68.692017%)" offset="0.398437"/><stop stop-opacity="1" stop-color="rgb(21.678162%, 63.572693%, 68.623352%)" offset="0.40625"/><stop stop-opacity="1" stop-color="rgb(21.620178%, 63.78479%, 68.554688%)" offset="0.414062"/><stop stop-opacity="1" stop-color="rgb(21.562195%, 63.998413%, 68.487549%)" offset="0.421875"/><stop stop-opacity="1" stop-color="rgb(21.504211%, 64.212036%, 68.418884%)" offset="0.429688"/><stop stop-opacity="1" stop-color="rgb(21.446228%, 64.424133%, 68.351746%)" offset="0.4375"/><stop stop-opacity="1" stop-color="rgb(21.386719%, 64.637756%, 68.283081%)" offset="0.445313"/><stop stop-opacity="1" stop-color="rgb(21.328735%, 64.851379%, 68.214417%)" offset="0.453125"/><stop stop-opacity="1" stop-color="rgb(21.270752%, 65.063477%, 68.147278%)" offset="0.460937"/><stop stop-opacity="1" stop-color="rgb(21.212769%, 65.2771%, 68.078613%)" offset="0.46875"/><stop stop-opacity="1" stop-color="rgb(21.154785%, 65.489197%, 68.009949%)" offset="0.476562"/><stop stop-opacity="1" stop-color="rgb(21.096802%, 65.70282%, 67.94281%)" offset="0.484375"/><stop stop-opacity="1" stop-color="rgb(21.038818%, 65.916443%, 67.874146%)" offset="0.492187"/><stop stop-opacity="1" stop-color="rgb(20.979309%, 66.12854%, 67.805481%)" offset="0.5"/><stop stop-opacity="1" stop-color="rgb(20.950317%, 66.235352%, 67.771912%)" offset="0.5"/><stop stop-opacity="1" stop-color="rgb(20.921326%, 66.342163%, 67.738342%)" offset="0.5"/><stop stop-opacity="1" stop-color="rgb(20.892334%, 66.448975%, 67.704773%)" offset="0.507812"/><stop stop-opacity="1" stop-color="rgb(20.863342%, 66.555786%, 67.669678%)" offset="0.515625"/><stop stop-opacity="1" stop-color="rgb(20.805359%, 66.767883%, 67.601013%)" offset="0.523438"/><stop stop-opacity="1" stop-color="rgb(20.747375%, 66.981506%, 67.533875%)" offset="0.53125"/><stop stop-opacity="1" stop-color="rgb(20.689392%, 67.193604%, 67.46521%)" offset="0.539063"/><stop stop-opacity="1" stop-color="rgb(20.629883%, 67.407227%, 67.396545%)" offset="0.546875"/><stop stop-opacity="1" stop-color="rgb(20.571899%, 67.62085%, 67.329407%)" offset="0.554687"/><stop stop-opacity="1" stop-color="rgb(20.513916%, 67.832947%, 67.260742%)" offset="0.5625"/><stop stop-opacity="1" stop-color="rgb(20.455933%, 68.04657%, 67.193604%)" offset="0.570312"/><stop stop-opacity="1" stop-color="rgb(20.397949%, 68.260193%, 67.124939%)" offset="0.578125"/><stop stop-opacity="1" stop-color="rgb(20.339966%, 68.47229%, 67.056274%)" offset="0.585937"/><stop stop-opacity="1" stop-color="rgb(20.281982%, 68.685913%, 66.989136%)" offset="0.59375"/><stop stop-opacity="1" stop-color="rgb(20.222473%, 68.89801%, 66.920471%)" offset="0.601562"/><stop stop-opacity="1" stop-color="rgb(20.16449%, 69.111633%, 66.851807%)" offset="0.609375"/><stop stop-opacity="1" stop-color="rgb(20.106506%, 69.325256%, 66.784668%)" offset="0.617188"/><stop stop-opacity="1" stop-color="rgb(20.048523%, 69.537354%, 66.716003%)" offset="0.625"/><stop stop-opacity="1" stop-color="rgb(19.99054%, 69.750977%, 66.647339%)" offset="0.632812"/><stop stop-opacity="1" stop-color="rgb(19.932556%, 69.9646%, 66.5802%)" offset="0.640625"/><stop stop-opacity="1" stop-color="rgb(19.873047%, 70.176697%, 66.511536%)" offset="0.648437"/><stop stop-opacity="1" stop-color="rgb(19.815063%, 70.39032%, 66.442871%)" offset="0.65625"/><stop stop-opacity="1" stop-color="rgb(19.75708%, 70.603943%, 66.375732%)" offset="0.664062"/><stop stop-opacity="1" stop-color="rgb(19.699097%, 70.81604%, 66.307068%)" offset="0.671875"/><stop stop-opacity="1" stop-color="rgb(19.641113%, 71.029663%, 66.238403%)" offset="0.679687"/><stop stop-opacity="1" stop-color="rgb(19.58313%, 71.24176%, 66.171265%)" offset="0.6875"/><stop stop-opacity="1" stop-color="rgb(19.525146%, 71.455383%, 66.1026%)" offset="0.695312"/><stop stop-opacity="1" stop-color="rgb(19.465637%, 71.669006%, 66.033936%)" offset="0.703125"/><stop stop-opacity="1" stop-color="rgb(19.407654%, 71.881104%, 65.966797%)" offset="0.710938"/><stop stop-opacity="1" stop-color="rgb(19.34967%, 72.094727%, 65.898132%)" offset="0.71875"/><stop stop-opacity="1" stop-color="rgb(19.291687%, 72.30835%, 65.830994%)" offset="0.726562"/><stop stop-opacity="1" stop-color="rgb(19.233704%, 72.520447%, 65.762329%)" offset="0.734375"/><stop stop-opacity="1" stop-color="rgb(19.17572%, 72.73407%, 65.693665%)" offset="0.742187"/><stop stop-opacity="1" stop-color="rgb(19.116211%, 72.946167%, 65.626526%)" offset="0.75"/><stop stop-opacity="1" stop-color="rgb(19.058228%, 73.15979%, 65.557861%)" offset="0.757812"/><stop stop-opacity="1" stop-color="rgb(19.000244%, 73.373413%, 65.489197%)" offset="0.765625"/><stop stop-opacity="1" stop-color="rgb(18.942261%, 73.58551%, 65.422058%)" offset="0.773437"/><stop stop-opacity="1" stop-color="rgb(18.884277%, 73.799133%, 65.353394%)" offset="0.78125"/><stop stop-opacity="1" stop-color="rgb(18.826294%, 74.012756%, 65.284729%)" offset="0.789062"/><stop stop-opacity="1" stop-color="rgb(18.766785%, 74.224854%, 65.21759%)" offset="0.796875"/><stop stop-opacity="1" stop-color="rgb(18.708801%, 74.438477%, 65.148926%)" offset="0.804688"/><stop stop-opacity="1" stop-color="rgb(18.650818%, 74.650574%, 65.080261%)" offset="0.8125"/><stop stop-opacity="1" stop-color="rgb(18.592834%, 74.864197%, 65.013123%)" offset="0.820312"/><stop stop-opacity="1" stop-color="rgb(18.534851%, 75.07782%, 64.944458%)" offset="0.828125"/><stop stop-opacity="1" stop-color="rgb(18.476868%, 75.289917%, 64.875793%)" offset="0.835937"/><stop stop-opacity="1" stop-color="rgb(18.418884%, 75.50354%, 64.808655%)" offset="0.84375"/><stop stop-opacity="1" stop-color="rgb(18.359375%, 75.717163%, 64.73999%)" offset="0.851562"/><stop stop-opacity="1" stop-color="rgb(18.301392%, 75.92926%, 64.671326%)" offset="0.859375"/><stop stop-opacity="1" stop-color="rgb(18.243408%, 76.142883%, 64.604187%)" offset="0.867187"/><stop stop-opacity="1" stop-color="rgb(18.185425%, 76.356506%, 64.535522%)" offset="0.875"/><stop stop-opacity="1" stop-color="rgb(18.127441%, 76.568604%, 64.468384%)" offset="0.882812"/><stop stop-opacity="1" stop-color="rgb(18.069458%, 76.782227%, 64.399719%)" offset="0.890625"/><stop stop-opacity="1" stop-color="rgb(18.009949%, 76.994324%, 64.331055%)" offset="0.898438"/><stop stop-opacity="1" stop-color="rgb(17.951965%, 77.207947%, 64.263916%)" offset="0.90625"/><stop stop-opacity="1" stop-color="rgb(17.893982%, 77.42157%, 64.195251%)" offset="0.914062"/><stop stop-opacity="1" stop-color="rgb(17.835999%, 77.633667%, 64.126587%)" offset="0.921875"/><stop stop-opacity="1" stop-color="rgb(17.778015%, 77.84729%, 64.059448%)" offset="0.929687"/><stop stop-opacity="1" stop-color="rgb(17.720032%, 78.060913%, 63.990784%)" offset="0.9375"/><stop stop-opacity="1" stop-color="rgb(17.662048%, 78.27301%, 63.922119%)" offset="0.945312"/><stop stop-opacity="1" stop-color="rgb(17.602539%, 78.486633%, 63.85498%)" offset="0.953125"/><stop stop-opacity="1" stop-color="rgb(17.544556%, 78.69873%, 63.786316%)" offset="0.960937"/><stop stop-opacity="1" stop-color="rgb(17.486572%, 78.912354%, 63.717651%)" offset="0.96875"/><stop stop-opacity="1" stop-color="rgb(17.428589%, 79.125977%, 63.650513%)" offset="0.976562"/><stop stop-opacity="1" stop-color="rgb(17.370605%, 79.338074%, 63.581848%)" offset="0.984375"/><stop stop-opacity="1" stop-color="rgb(17.311096%, 79.554749%, 63.511658%)" offset="0.992188"/><stop stop-opacity="1" stop-color="rgb(17.251587%, 79.782104%, 63.433838%)" offset="1"/></linearGradient></defs><g clip-path="url(#3ede27e0a9)"><g clip-path="url(#b7b85adb64)"><path fill="url(#156aab312b)" d="M 5.480469 5.917969 L 5.480469 369.667969 L 239.5 369.667969 L 239.5 5.917969 Z M 5.480469 5.917969 " fill-rule="nonzero"/></g></g><g clip-path="url(#3035f69512)"><g clip-path="url(#4c77ff5af4)"><path fill="url(#e8cfbf0684)" d="M 5.480469 208.320312 L 5.480469 369.667969 L 239.5 369.667969 L 239.5 208.320312 Z M 5.480469 208.320312 " fill-rule="nonzero"/></g></g><g clip-path="url(#cab134913e)"><g clip-path="url(#96946d8d0b)"><path fill="url(#51c0edb211)" d="M 196.015625 160.523438 L 196.015625 222.433594 L 243.035156 222.433594 L 243.035156 160.523438 Z M 196.015625 160.523438 " fill-rule="nonzero"/></g></g><g clip-path="url(#72376d4bd0)"><g clip-path="url(#8c0dcbcce8)"><path fill="url(#69e06db082)" d="M 270.25 205.066406 L 270.25 266.976562 L 317.269531 266.976562 L 317.269531 205.066406 Z M 270.25 205.066406 " fill-rule="nonzero"/></g></g><g clip-path="url(#445d850b0c)"><g clip-path="url(#9ce79d973e)"><path fill="url(#497ce5a904)" d="M 223.910156 160.480469 L 223.910156 266.976562 L 289.421875 266.976562 L 289.421875 160.480469 Z M 223.910156 160.480469 " fill-rule="nonzero"/></g></g><g clip-path="url(#cba2a6bf2e)"><g clip-path="url(#e403827500)"><path fill="url(#fc99bb4631)" d="M 144.054688 101.183594 L 144.054688 326.363281 L 369.230469 326.363281 L 369.230469 101.183594 Z M 144.054688 101.183594 " fill-rule="nonzero"/></g></g></svg>